<?xml version="1.0" encoding="UTF-8"?>
<svg width="23px" height="34px" viewBox="0 0 23 34" version="1.1" xmlns="http://www.w3.org/2000/svg" xmlns:xlink="http://www.w3.org/1999/xlink">
    <!-- Generator: sketchtool 57.1 (101010) - https://sketch.com -->
    <title>2ADC1313-0156-4945-B6FF-31F2BD3A1CF2</title>
    <desc>Created with sketchtool.</desc>
    <g id="Page-1" stroke="none" stroke-width="1" fill="none" fill-rule="evenodd">
        <g id="Services---GEO" transform="translate(-1196.000000, -297.000000)" fill="#D6E4EF" fill-rule="nonzero">
            <g id="Group-3" transform="translate(894.000000, 297.000000)">
                <path d="M329.79856,16.5139347 L319.486068,6.20143218 C319.217492,5.93285594 318.782433,5.93285594 318.513922,6.20143218 C318.245346,6.47000842 318.245346,6.90506712 318.513922,7.1735789 L327.652853,16.3125186 L297.687521,16.3125186 C297.307506,16.3125186 297,16.6200246 297,17.0000403 C297,17.380056 297.307506,17.6875619 297.687521,17.6875619 L327.652853,17.6875619 L318.513922,26.8264372 C318.245346,27.0950135 318.245346,27.5300722 318.513922,27.7985839 C318.648178,27.9328398 318.824134,28 319.000027,28 C319.175919,28 319.351812,27.9328398 319.486132,27.7985839 L329.798624,17.4860814 C330.067136,17.2175696 330.067136,16.7825109 329.79856,16.5139347 Z" id="Path" transform="translate(313.500000, 17.000000) rotate(-270.000000) translate(-313.500000, -17.000000) "></path>
            </g>
        </g>
    </g>
</svg>