<?xml version="1.0" encoding="UTF-8"?>
<svg width="33px" height="22px" viewBox="0 0 33 22" version="1.1" xmlns="http://www.w3.org/2000/svg" xmlns:xlink="http://www.w3.org/1999/xlink">
    <!-- Generator: sketchtool 57.1 (101010) - https://sketch.com -->
    <title>F0771AB3-954A-48F0-85C5-05CB2A451EA8</title>
    <desc>Created with sketchtool.</desc>
    <g id="Page-1" stroke="none" stroke-width="1" fill="none" fill-rule="evenodd">
        <g id="Platform" transform="translate(-401.000000, -1041.000000)" fill="#FFFFFF" fill-rule="nonzero">
            <g id="Group-6" transform="translate(220.000000, 1037.000000)">
                <path d="M213.79856,14.5139347 L203.486068,4.20143218 C203.217492,3.93285594 202.782433,3.93285594 202.513922,4.20143218 C202.245346,4.47000842 202.245346,4.90506712 202.513922,5.1735789 L211.652853,14.3125186 L181.687521,14.3125186 C181.307506,14.3125186 181,14.6200246 181,15.0000403 C181,15.380056 181.307506,15.6875619 181.687521,15.6875619 L211.652853,15.6875619 L202.513922,24.8264372 C202.245346,25.0950135 202.245346,25.5300722 202.513922,25.7985839 C202.648178,25.9328398 202.824134,26 203.000027,26 C203.175919,26 203.351812,25.9328398 203.486132,25.7985839 L213.798624,15.4860814 C214.067136,15.2175696 214.067136,14.7825109 213.79856,14.5139347 Z" id="Path" transform="translate(197.500000, 15.000000) rotate(-360.000000) translate(-197.500000, -15.000000) "></path>
            </g>
        </g>
    </g>
</svg>