<?xml version="1.0" encoding="UTF-8"?>
<svg width="347px" height="366px" viewBox="0 0 347 366" version="1.1" xmlns="http://www.w3.org/2000/svg" xmlns:xlink="http://www.w3.org/1999/xlink">
    <!-- Generator: sketchtool 57.1 (101010) - https://sketch.com -->
    <title>0DD9CB31-28CE-45C4-B7E4-A42475756361</title>
    <desc>Created with sketchtool.</desc>
    <g id="Page-1" stroke="none" stroke-width="1" fill="none" fill-rule="evenodd" fill-opacity="0.42">
        <g id="Landing-page-3-b" transform="translate(-872.000000, -1148.000000)" fill="#882D85" fill-rule="nonzero">
            <g id="Group-4" transform="translate(643.000000, 1006.000000)">
                <g id="planet-earth">
                    <g id="user" transform="translate(229.000000, 142.000000)">
                        <path d="M310.019071,184 C341.612963,184 367.316805,209.699323 367.316805,241.287659 C367.316805,258.699588 359.497018,274.311205 347.195905,284.826647 C372.865369,298.317149 391,325.350093 391,356.627557 L391,356.627557 L391,379.542774 C391,385.870218 385.869316,391 379.540759,391 L379.540759,391 L11.3056872,391 C4.97713036,391 0,385.870218 0,379.542774 L0,379.542774 L0,356.627557 C0,325.033874 18.2629744,298.168969 43.651305,284.826647 C31.3501917,274.310441 23.5304056,258.699588 23.5304056,241.287659 C23.5304056,209.699323 49.2342472,184 80.8281387,184 C112.42203,184 138.125872,209.699323 138.125872,241.287659 L138.125,241.273 L138.133563,240.341796 C138.635417,209.502592 163.632948,184.509455 194.477575,184.00769 L195.423605,184 C227.012913,184 252.713699,209.691684 252.721338,241.273147 C252.729742,209.691684 278.429764,184 310.019071,184 Z M195.422077,298.576846 C163.828186,298.576846 138.124344,324.618358 138.124344,356.628321 L138.124344,356.628321 L138.124344,368.085547 L252.873364,368.085547 L252.873364,356.628321 C252.873364,324.619122 227.015969,298.576846 195.422077,298.576846 Z M310.019071,298.576083 C293.050227,298.576083 277.161608,306.031682 266.328805,318.800379 C272.267748,330.097968 275.63982,342.972071 275.63982,356.628321 L275.63982,356.628321 L275.63982,368.085547 L368.233544,368.085547 L368.233544,356.627557 C368.233544,325.160667 341.491495,298.576083 310.019071,298.576083 Z M80.8266108,298.576083 C49.3541873,298.576083 22.7649283,325.160667 22.7649283,356.627557 L22.7649283,356.627557 L22.7649283,368.084783 L115.358652,368.084783 L115.358652,356.627557 C115.358652,342.971307 118.577171,330.097204 124.516877,318.800379 C113.683311,306.031682 97.794691,298.576083 80.8266108,298.576083 Z M138.125,241.314 L138.122711,241.893785 C137.943713,259.046401 130.176259,274.405971 118.037058,284.798386 C125.488621,288.69919 132.32826,293.76863 138.273314,299.872277 C144.111415,293.883203 150.863964,288.806888 158.29872,284.871712 C145.967049,274.355506 138.125872,258.724794 138.125872,241.287659 L138.125,241.314 Z M252.721338,241.314393 C252.712935,258.740834 244.87405,274.361617 232.54849,284.871712 C239.983246,288.806888 246.735031,293.883967 252.573132,299.872277 C258.517422,293.767867 265.357061,288.69919 272.809388,284.798386 C260.533485,274.28829 252.728978,258.700352 252.721338,241.314393 Z M310.018307,206.915217 C291.062431,206.915217 275.63982,222.335116 275.63982,241.287659 C275.63982,260.240203 291.061667,275.660102 310.018307,275.660102 C328.974184,275.660102 344.396795,260.240967 344.396795,241.287659 C344.396795,222.335116 328.974948,206.915217 310.018307,206.915217 Z M195.422841,206.915217 C176.466201,206.915217 161.04359,222.335116 161.044354,241.287659 C161.044354,260.240203 176.466201,275.660102 195.422841,275.660102 C214.378718,275.660102 229.801328,260.240967 229.801328,241.287659 C229.801328,222.335116 214.379482,206.915217 195.422841,206.915217 Z M80.8266108,206.915217 C61.8699703,206.915217 46.4481237,222.335116 46.4481237,241.287659 C46.4481237,260.240203 61.8707343,275.660102 80.8266108,275.660102 C99.7824874,275.660102 115.205098,260.240967 115.205098,241.287659 C115.205098,222.335116 99.7832513,206.915217 80.8266108,206.915217 Z M184.222482,6.43525619 C188.376986,-2.13974379 200.618112,-2.15042534 204.777947,6.43525619 L204.777947,6.43525619 L224.406551,46.9511583 L268.216577,53.3288097 C277.572779,54.690708 281.312214,66.24281 274.548483,72.8501149 L274.548483,72.8501149 L242.812794,103.840359 L250.303848,147.599639 C251.905484,156.954392 242.0809,164.064493 233.72772,159.664455 L233.72772,159.664455 L194.500215,139.004039 L155.272709,159.664455 C146.903535,164.072886 137.099515,156.926925 138.696581,147.599639 L138.696581,147.599639 L146.187635,103.840359 L114.453469,72.8501149 C107.682123,66.2382322 111.435266,54.6899451 120.784614,53.3288097 L120.784614,53.3288097 L164.593878,46.9511583 Z M194.499453,37.6437088 L182.505845,62.401265 C180.852421,65.8140219 177.617925,68.1845642 173.870874,68.7300865 L173.870874,68.7300865 L146.978172,72.6441135 L166.438463,91.6481263 C169.130703,94.2773148 170.359157,98.0654521 169.723986,101.778055 L169.723986,101.778055 L165.130041,128.611648 L189.184277,115.943324 C192.511689,114.190786 196.488741,114.190786 199.816152,115.943324 L199.816152,115.943324 L223.870388,128.611648 L219.276443,101.778055 C218.641272,98.0654521 219.869726,94.2773148 222.561967,91.6481263 L222.561967,91.6481263 L242.022258,72.6448765 L215.128032,68.7300865 C211.380981,68.1845642 208.147246,65.8140219 206.493822,62.401265 L206.493822,62.401265 L194.499453,37.6437088 Z" id="Combined-Shape"></path>
                    </g>
                </g>
            </g>
        </g>
    </g>
</svg>