<?xml version="1.0" encoding="UTF-8"?>
<svg width="173px" height="147px" viewBox="0 0 173 147" version="1.1" xmlns="http://www.w3.org/2000/svg" xmlns:xlink="http://www.w3.org/1999/xlink">
    <!-- Generator: sketchtool 57.1 (101010) - https://sketch.com -->
    <title>1EA1479B-522B-4816-A30B-2C5160092D3F</title>
    <desc>Created with sketchtool.</desc>
    <g id="Page-1" stroke="none" stroke-width="1" fill="none" fill-rule="evenodd">
        <g id="Landing-page-3-b" transform="translate(-555.000000, -2196.000000)" fill="#90328D" fill-rule="nonzero">
            <g id="Group-11" transform="translate(494.000000, 2196.000000)">
                <g id="calendar">
                    <g transform="translate(61.000000, -64.000000)" id="Combined-Shape">
                        <path d="M149.183594,0 C152.597508,0 155.365234,2.76772656 155.365234,6.18164062 L155.365234,6.18164062 L155.365234,12.3632812 L167.728516,12.3632812 C177.954186,12.3632812 186.273438,20.6825332 186.273438,30.9082031 L186.273438,30.9082031 L186.273438,109.129035 C201.17284,119.121451 211,136.11643 211,155.365234 C211,186.042244 186.042244,211 155.365234,211 C136.116842,211 119.121451,201.17284 109.129035,186.273438 L109.129035,186.273438 L6.18164062,186.273438 C2.76772656,186.273438 0,183.505711 0,180.091797 L0,180.091797 L0,30.9082031 C0,20.6825332 8.31925195,12.3632812 18.5449219,12.3632812 L18.5449219,12.3632812 L30.9082031,12.3632812 L30.9082031,6.18164062 C30.9082031,2.76772656 33.6759297,0 37.0898438,0 C40.5037578,0 43.2714844,2.76772656 43.2714844,6.18164062 L43.2714844,6.18164062 L43.2714844,12.3632812 L67.9980469,12.3632812 L67.9980469,6.18164062 C67.9980469,2.76772656 70.7657734,0 74.1796875,0 C77.5936016,0 80.3613281,2.76772656 80.3613281,6.18164062 L80.3613281,6.18164062 L80.3613281,12.3632812 L105.912109,12.3632812 L105.912109,6.18164062 C105.912109,2.76772656 108.679836,0 112.09375,0 C115.507664,0 118.275391,2.76772656 118.275391,6.18164062 L118.275391,6.18164062 L118.275391,12.3632812 L143.001953,12.3632812 L143.001953,6.18164062 C143.001953,2.76772656 145.76968,0 149.183594,0 Z M155.365234,112.09375 C131.505338,112.09375 112.09375,131.505338 112.09375,155.365234 C112.09375,179.225131 131.505338,198.636719 155.365234,198.636719 C179.225131,198.636719 198.636719,179.225131 198.636719,155.365234 C198.636719,131.505338 179.225131,112.09375 155.365234,112.09375 Z M173.910156,62.640625 L12.3632812,62.640625 L12.3632812,173.910156 L102.912777,173.910156 C100.854703,168.106832 99.7304688,161.865023 99.7304688,155.365234 C99.7304688,124.688225 124.688225,99.7304687 155.365234,99.7304687 C161.865023,99.7304687 168.106832,100.854703 173.910156,102.912777 L173.910156,102.912777 L173.910156,62.640625 Z M155.166667,125 C158.49663,125 161.210303,127.639674 161.329266,130.940602 L161.333333,131.166667 L161.333333,149.666667 L179.833333,149.666667 C183.238978,149.666667 186,152.427689 186,155.833333 C186,159.163297 183.360326,161.87697 180.059398,161.995933 L179.833333,162 L155.166667,162 C151.836703,162 149.12303,159.360326 149.004067,156.059398 L149,155.833333 L149,131.166667 C149,127.761022 151.761022,125 155.166667,125 Z M43.75,149 C47.2016667,149 50,151.6864 50,155 C50,158.239964 47.3246551,160.880295 43.9791197,160.996043 L43.75,161 L31.25,161 C27.7983333,161 25,158.3136 25,155 C25,151.760036 27.6753449,149.119705 31.0208803,149.003957 L31.25,149 L43.75,149 Z M80.75,149 C84.2016667,149 87,151.6864 87,155 C87,158.239964 84.3246551,160.880295 80.9791197,160.996043 L80.75,161 L68.25,161 C64.7983333,161 62,158.3136 62,155 C62,151.760036 64.6753449,149.119705 68.0208803,149.003957 L68.25,149 L80.75,149 Z M43.75,125 C47.2016667,125 50,127.6864 50,131 C50,134.239964 47.3246551,136.880295 43.9791197,136.996043 L43.75,137 L31.25,137 C27.7983333,137 25,134.3136 25,131 C25,127.760036 27.6753449,125.119705 31.0208803,125.003957 L31.25,125 L43.75,125 Z M80.75,125 C84.2016667,125 87,127.6864 87,131 C87,134.239964 84.3246551,136.880295 80.9791197,136.996043 L80.75,137 L68.25,137 C64.7983333,137 62,134.3136 62,131 C62,127.760036 64.6753449,125.119705 68.0208803,125.003957 L68.25,125 L80.75,125 Z M43.75,100 C47.2016667,100 50,102.6864 50,106 C50,109.239964 47.3246551,111.880295 43.9791197,111.996043 L43.75,112 L31.25,112 C27.7983333,112 25,109.3136 25,106 C25,102.760036 27.6753449,100.119705 31.0208803,100.003957 L31.25,100 L43.75,100 Z M80.75,100 C84.2016667,100 87,102.6864 87,106 C87,109.239964 84.3246551,111.880295 80.9791197,111.996043 L80.75,112 L68.25,112 C64.7983333,112 62,109.3136 62,106 C62,102.760036 64.6753449,100.119705 68.0208803,100.003957 L68.25,100 L80.75,100 Z M117.852459,100 C121.247541,100 124,102.6864 124,106 C124,109.238291 121.371231,111.877567 118.082921,111.995861 L117.852459,112 L105.147541,112 C101.752459,112 99,109.3136 99,106 C99,102.761709 101.628769,100.122433 104.917079,100.004139 L105.147541,100 L117.852459,100 Z M43.75,75 C47.2016667,75 50,77.6864 50,81 C50,84.2399644 47.3246551,86.8802947 43.9791197,86.9960427 L43.75,87 L31.25,87 C27.7983333,87 25,84.3136 25,81 C25,77.7600356 27.6753449,75.1197053 31.0208803,75.0039573 L31.25,75 L43.75,75 Z M80.75,75 C84.2016667,75 87,77.6864 87,81 C87,84.2399644 84.3246551,86.8802947 80.9791197,86.9960427 L80.75,87 L68.25,87 C64.7983333,87 62,84.3136 62,81 C62,77.7600356 64.6753449,75.1197053 68.0208803,75.0039573 L68.25,75 L80.75,75 Z M117.852459,75 C121.247541,75 124,77.6864 124,81 C124,84.2382909 121.371231,86.8775669 118.082921,86.9958614 L117.852459,87 L105.147541,87 C101.752459,87 99,84.3136 99,81 C99,77.7617091 101.628769,75.1224331 104.917079,75.0041386 L105.147541,75 L117.852459,75 Z M155.75,75 C159.201667,75 162,77.6864 162,81 C162,84.2399644 159.324655,86.8802947 155.97912,86.9960427 L155.75,87 L143.25,87 C139.798333,87 137,84.3136 137,81 C137,77.7600356 139.675345,75.1197053 143.02088,75.0039573 L143.25,75 L155.75,75 Z M30.9082031,24.7265625 L18.5449219,24.7265625 C15.1363652,24.7265625 12.3632812,27.4996465 12.3632812,30.9082031 L12.3632812,30.9082031 L12.3632812,50.2773438 L173.910156,50.2773438 L173.910156,30.9082031 C173.910156,27.4996465 171.137072,24.7265625 167.728516,24.7265625 L167.728516,24.7265625 L155.365234,24.7265625 L155.365234,30.9082031 C155.365234,34.3221172 152.597508,37.0898438 149.183594,37.0898438 C145.76968,37.0898438 143.001953,34.3221172 143.001953,30.9082031 L143.001953,30.9082031 L143.001953,24.7265625 L118.275391,24.7265625 L118.275391,30.9082031 C118.275391,34.3221172 115.507664,37.0898438 112.09375,37.0898438 C108.679836,37.0898438 105.912109,34.3221172 105.912109,30.9082031 L105.912109,30.9082031 L105.912109,24.7265625 L80.3613281,24.7265625 L80.3613281,30.9082031 C80.3613281,34.3221172 77.5936016,37.0898438 74.1796875,37.0898438 C70.7657734,37.0898438 67.9980469,34.3221172 67.9980469,30.9082031 L67.9980469,30.9082031 L67.9980469,24.7265625 L43.2714844,24.7265625 L43.2714844,30.9082031 C43.2714844,34.3221172 40.5037578,37.0898438 37.0898438,37.0898438 C33.6759297,37.0898438 30.9082031,34.3221172 30.9082031,30.9082031 L30.9082031,30.9082031 L30.9082031,24.7265625 Z"></path>
                    </g>
                </g>
            </g>
        </g>
    </g>
</svg>