<?xml version="1.0" encoding="UTF-8"?>
<svg width="187px" height="185px" viewBox="0 0 187 185" version="1.1" xmlns="http://www.w3.org/2000/svg" xmlns:xlink="http://www.w3.org/1999/xlink">
    <!-- Generator: sketchtool 57.1 (101010) - https://sketch.com -->
    <title>410D8558-E80F-4D67-B760-6626F80361F0</title>
    <desc>Created with sketchtool.</desc>
    <g id="Page-1" stroke="none" stroke-width="1" fill="none" fill-rule="evenodd">
        <g id="Landing-page-3" transform="translate(-540.000000, -1924.000000)" fill="#90328D" fill-rule="nonzero">
            <g id="Group-6" transform="translate(220.000000, 1924.000000)">
                <g id="Group-7" transform="translate(273.000000, 0.000000)">
                    <g id="coin">
                        <g transform="translate(47.000000, -48.000000)">
                            <path d="M198.878242,34.1217578 C176.874305,12.1178203 147.618242,0 116.5,0 C85.3817578,0 56.1256953,12.1178203 34.1217578,34.1217578 C12.1182754,56.1256953 0,85.3817578 0,116.5 C0,147.618242 12.1182754,176.874305 34.1217578,198.878242 C56.1256953,220.88218 85.3817578,233 116.5,233 C147.618242,233 176.874305,220.88218 198.878242,198.878242 C220.881725,176.874305 233,147.618242 233,116.5 C233,85.3817578 220.881725,56.1256953 198.878242,34.1217578 Z M116.5,219.347656 C59.7895293,219.347656 13.6523438,173.210471 13.6523438,116.5 C13.6523438,59.7895293 59.7895293,13.6523438 116.5,13.6523438 C173.210471,13.6523438 219.347656,59.7895293 219.347656,116.5 C219.347656,173.210471 173.210471,219.347656 116.5,219.347656 Z" id="Shape"></path>
                            <path d="M124.297101,109.685636 L109.702899,109.685636 C101.388464,109.685636 94.6245553,102.920332 94.6245553,94.6046366 C94.6245553,86.2884868 101.388918,79.523183 109.702899,79.523183 L138.890849,79.523183 C142.653168,79.523183 145.703353,76.4723684 145.703353,72.7092732 C145.703353,68.9461779 142.653168,65.8953634 138.890849,65.8953634 L123.812505,65.8953634 L123.812505,50.8139098 C123.812505,47.0508145 120.762319,44 117,44 C113.237681,44 110.187495,47.0508145 110.187495,50.8139098 L110.187495,65.8953634 L109.703353,65.8953634 C93.8760881,65.8953634 81,78.7745614 81,94.6046366 C81,110.434712 93.8765423,123.313456 109.703353,123.313456 L124.297555,123.313456 C132.611536,123.313456 139.375445,130.079214 139.375445,138.394909 C139.375445,146.710605 132.611536,153.476363 124.297555,153.476363 L95.1096056,153.476363 C91.3472864,153.476363 88.2971009,156.527177 88.2971009,160.290273 C88.2971009,164.053368 91.3472864,167.104182 95.1096056,167.104182 L110.187495,167.104182 L110.187495,182.18609 C110.187495,185.949185 113.237681,189 117,189 C120.762319,189 123.812505,185.949185 123.812505,182.18609 L123.812505,167.104182 L124.297101,167.104182 C140.123912,167.104182 153,154.224984 153,138.394909 C153,122.564834 140.123912,109.685636 124.297101,109.685636 Z" id="Path"></path>
                        </g>
                    </g>
                </g>
            </g>
        </g>
    </g>
</svg>