<?xml version="1.0" encoding="UTF-8"?>
<svg width="23px" height="34px" viewBox="0 0 23 34" version="1.1" xmlns="http://www.w3.org/2000/svg" xmlns:xlink="http://www.w3.org/1999/xlink">
    <!-- Generator: sketchtool 57.1 (101010) - https://sketch.com -->
    <title>51C0D3F5-CF95-47C8-BDA4-FBF4294EEDAF</title>
    <desc>Created with sketchtool.</desc>
    <g id="Page-1" stroke="none" stroke-width="1" fill="none" fill-rule="evenodd">
        <g id="Landing-page-3" transform="translate(-261.000000, -927.000000)" fill="#FFFFFF" fill-rule="nonzero">
            <g id="Group-3" transform="translate(261.000000, 809.000000)">
                <path d="M27.79856,134.513935 L17.4860675,124.201432 C17.2174915,123.932856 16.7824333,123.932856 16.5139217,124.201432 C16.2453458,124.470008 16.2453458,124.905067 16.5139217,125.173579 L25.6528525,134.312519 L-4.31247902,134.312519 C-4.69249437,134.312519 -5,134.620025 -5,135.00004 C-5,135.380056 -4.69249437,135.687562 -4.31247902,135.687562 L25.6528525,135.687562 L16.5139217,144.826437 C16.2453458,145.095013 16.2453458,145.530072 16.5139217,145.798584 C16.6481775,145.93284 16.8241344,146 17.0000269,146 C17.1759193,146 17.3518118,145.93284 17.486132,145.798584 L27.7986244,135.486081 C28.0671359,135.21757 28.0671359,134.782511 27.79856,134.513935 Z" id="Path" transform="translate(11.500000, 135.000000) rotate(-270.000000) translate(-11.500000, -135.000000) "></path>
            </g>
        </g>
    </g>
</svg>