<?xml version="1.0" encoding="UTF-8"?>
<svg width="53px" height="38px" viewBox="0 0 53 38" version="1.1" xmlns="http://www.w3.org/2000/svg" xmlns:xlink="http://www.w3.org/1999/xlink">
    <!-- Generator: sketchtool 57.1 (101010) - https://sketch.com -->
    <title>4EE7AA18-31D0-4EF2-A5B1-BEE7BC4A3531</title>
    <desc>Created with sketchtool.</desc>
    <g id="Page-1" stroke="none" stroke-width="1" fill="none" fill-rule="evenodd">
        <g id="Services---GEO" transform="translate(-219.000000, -1239.000000)" fill="#D6E4EF" fill-rule="nonzero">
            <g id="Group-9" transform="translate(219.000000, 1239.000000)">
                <path d="M39.15393,0 C39.7255444,0 40.1890883,0.469596702 40.1890883,1.04867508 C40.1890883,1.58914824 39.78529,2.03425068 39.2667066,2.09119558 L39.15393,2.09735016 L14.6933471,2.09735016 C13.129685,2.09735016 11.8471806,3.33758916 11.7575676,4.89630865 L11.7525659,5.07076349 L11.7525659,6.97756939 L41.008416,6.97756939 C41.3404948,6.97756939 41.6649134,7.01123186 41.9791875,7.07394263 C44.2073301,7.51748631 45.9103922,9.46019633 46.0146576,11.8172918 L46.0197207,12.046655 L46.0197207,28.924661 L47.9890058,28.924661 C49.5526679,28.924661 50.8351723,27.6839344 50.9247853,26.1246159 L50.929787,25.9500941 L50.929787,5.07076349 C50.929787,3.43126487 49.6105813,2.09735016 47.9890058,2.09735016 C47.4173914,2.09735016 46.9538476,1.62775346 46.9538476,1.04867508 C46.9538476,0.469596702 47.4173914,0 47.9890058,0 C50.6794394,0 52.8813354,2.15663575 52.9953615,4.85123999 L53,5.07086836 L53,25.950199 C53,28.6733129 50.8688067,30.9020072 48.2059436,31.0174211 L47.9889023,31.022116 L46.0196172,31.022116 L46.0196172,33.0916763 C46.0196172,35.7250525 43.9598395,37.8806152 41.3850081,37.9952085 L41.1692796,38 L4.85044111,38 C2.24828823,38 0.117986039,35.9156096 0.0047353387,33.3099847 L0,33.0916763 L0,11.8863126 C0,9.2529364 2.05997373,7.09737366 4.63472041,6.98278034 L4.85044111,6.97798886 L9.68224938,6.97798886 L9.68224938,5.07076349 C9.68224938,2.34826224 11.8134427,0.12008114 14.4763057,0.00469383962 L14.6933471,0 L39.15393,0 Z M41.0105899,9.07533903 L4.85044111,9.07533903 C3.37425174,9.07533903 2.16309072,10.2446909 2.07540004,11.7153351 L2.07031654,11.8863126 L2.07031654,33.0916763 C2.07031654,34.5843138 3.22670789,35.8088512 4.68132591,35.8975102 L4.85044111,35.9026498 L41.1692796,35.9026498 C42.645469,35.9026498 43.856438,34.733298 43.9441145,33.2626537 L43.9491972,33.0916763 L43.9491972,12.0494864 C43.9491972,10.6039927 42.924287,9.39665307 41.5710246,9.13018473 C41.3895613,9.09463465 41.2023012,9.07533903 41.0105899,9.07533903 Z M11.5,17 C13.7830963,17 15.6405624,18.8485484 15.6405624,21.1209517 C15.6405624,22.0189708 15.349587,22.8500157 14.8578956,23.5277225 C15.0711565,23.6295986 15.2756597,23.7505175 15.4680768,23.8900813 L15.6563419,24.0358453 L16.1680209,24.4585473 C16.8808691,25.0472616 17.3522395,25.8573661 17.5115544,26.7588584 L17.5448412,26.9860602 L17.992981,30.8309402 C18.0275909,31.127974 17.9331239,31.4256367 17.7335649,31.6488838 C17.5624241,31.8403282 17.3279848,31.9615451 17.0754932,31.9922715 L16.9479526,32 L6.05205248,32 C5.75192501,32 5.46599916,31.8722356 5.26644016,31.6488838 C5.09529942,31.4575292 5.00152368,31.2115018 5.00001841,30.9580601 L5.00702399,30.8309402 L5.45505865,26.9859554 C5.56187422,26.0701346 5.98671634,25.2347787 6.65884195,24.6100551 L6.83198416,24.4583377 L7.3434527,24.0358453 C7.58887765,23.833246 7.85776157,23.6634525 8.14210947,23.5276177 C7.65041799,22.8500157 7.35954787,22.0188659 7.35954787,21.1209517 C7.35954787,18.8486532 9.21690876,17 11.5,17 Z M39.9460839,26 C40.4893566,26 40.9365983,26.3958699 40.993816,26.9042712 L41,27.0148335 L41,30.9851665 C41,31.5081982 40.5888846,31.9389368 40.0609041,31.994044 L39.9460839,32 L23.0539161,32 C22.5107418,32 22.0634148,31.6041301 22.0061853,31.0957288 L22,30.9851665 L22,27.0148335 C22,26.4918018 22.4111154,26.0610632 22.9390959,26.005956 L23.0539161,26 L39.9460839,26 Z M38.8921677,28.029667 L24.1078323,28.029667 L24.1078323,29.970333 L38.8921677,29.970333 L38.8921677,28.029667 Z M13.1777919,25.2420082 L9.82179237,25.2420082 C9.46688724,25.2420082 9.11986546,25.3484275 8.82749712,25.5444354 L8.68608393,25.6498271 L8.17461539,26.0723195 C7.86551986,26.3276386 7.65565155,26.6737157 7.5726362,27.059996 L7.54490525,27.2278587 L7.23310089,29.9037837 L15.7664834,29.9037837 L15.454679,27.2278587 C15.4084711,26.8311236 15.2314638,26.4673694 14.9513532,26.1872214 L14.8250741,26.0724243 L14.8249689,26.0723195 L14.3133951,25.6497223 C13.9951737,25.3868567 13.5918479,25.2420082 13.1777919,25.2420082 Z M11.4998973,19.0962163 C10.3769177,19.0962163 9.46338568,20.0045069 9.46338568,21.1209517 C9.46338568,22.2373965 10.3769177,23.145687 11.4998973,23.145687 C12.6228769,23.145687 13.5365142,22.2373965 13.5365142,21.1209517 C13.5365142,20.0045069 12.6229821,19.0962163 11.4998973,19.0962163 Z M33.9752079,21 C34.5410981,21 35,21.4478 35,22 C35,22.5153867 34.6002455,22.9398293 34.0868552,22.9941311 L33.9752079,23 L23.0247921,23 C22.4589019,23 22,22.5522 22,22 C22,21.4846133 22.3997545,21.0601707 22.9131448,21.0058689 L23.0247921,21 L33.9752079,21 Z M29.9343311,17 C30.5227935,17 31,17.4478 31,18 C31,18.5153867 30.5843001,18.9398293 30.0504317,18.9941311 L29.9343311,19 L23.0656689,19 C22.4772065,19 22,18.5522 22,18 C22,17.4846133 22.4156999,17.0601707 22.9495683,17.0058689 L23.0656689,17 L29.9343311,17 Z M34.8354968,17.4425216 C35.1340224,17.8990132 35.017243,18.5307928 34.5582587,18.8349867 C34.1028892,19.1368715 33.4698905,19.0129853 33.165541,18.5577988 C32.8615932,18.1031142 32.9888155,17.4682224 33.4437833,17.1653337 C33.8985503,16.8625453 34.5319507,16.9876363 34.8354968,17.4425216 Z M38.9551104,13 C39.5320984,13 40,13.4478 40,14 C40,14.5153867 39.5924057,14.9398293 39.0689472,14.9941311 L38.9551104,15 L23.0448896,15 C22.4679016,15 22,14.5522 22,14 C22,13.4846133 22.4075943,13.0601707 22.9310528,13.0058689 L23.0448896,13 L38.9551104,13 Z M10.9278767,13 C11.5199032,13 12,13.4478 12,14 C12,14.5153867 11.5817823,14.9398293 11.0446805,14.9941311 L10.9278767,15 L6.07212326,15 C5.47998959,15 5,14.5522 5,14 C5,13.4846133 5.41821765,13.0601707 5.95531945,13.0058689 L6.07212326,13 L10.9278767,13 Z M43.6169516,0.0753466982 C44.1193946,-0.13583013 44.7172166,0.113432695 44.9255075,0.616568754 C45.1344997,1.12140866 44.887937,1.71615156 44.3834902,1.92552432 C43.8803459,2.13429571 43.2819228,1.88854081 43.0750345,1.3833 C42.8641386,0.877157151 43.1145086,0.2864233 43.6169516,0.0753466982 Z" id="Combined-Shape"></path>
            </g>
        </g>
    </g>
</svg>