<?xml version="1.0" encoding="UTF-8"?>
<svg width="45px" height="45px" viewBox="0 0 45 45" version="1.1" xmlns="http://www.w3.org/2000/svg" xmlns:xlink="http://www.w3.org/1999/xlink">
    <!-- Generator: sketchtool 57.1 (101010) - https://sketch.com -->
    <title>6F5977A4-6B7F-4341-9ACC-F2E514F55B84</title>
    <desc>Created with sketchtool.</desc>
    <g id="Page-1" stroke="none" stroke-width="1" fill="none" fill-rule="evenodd">
        <g id="Services---GEO" transform="translate(-581.000000, -1232.000000)" fill="#D6E4EF" fill-rule="nonzero">
            <g id="Group-10" transform="translate(581.000000, 1232.000000)">
                <path d="M43.7539188,19.8151528 C45.2354754,21.0511329 45.4226448,23.2445146 44.1715296,24.7051874 C35.7362034,34.6540306 36.2613078,34.0436659 36.2001773,34.1022961 C34.7930184,35.4536638 32.9605009,36.2298499 31.0089416,36.3078103 L30.682632,36.3143175 L18.9981153,36.3143175 C18.3799414,36.3143175 17.7918108,36.5243189 17.3205985,36.9092391 L17.1679772,37.0439762 L16.2513627,37.916313 C16.5498248,38.7782923 16.3749975,39.7618 15.7554615,40.4700254 L15.6256334,40.6078825 L11.3643547,44.7506356 C11.0479699,45.0581903 10.5555534,45.0806873 10.2132688,44.8212593 L10.1238858,44.7435186 L0.255083184,34.9302367 C-0.0572091033,34.6198861 -0.0826563444,34.134685 0.178212505,33.7957147 L0.256456904,33.707135 L4.4377163,29.5687877 C5.071688,28.9431723 5.95292926,28.6937395 6.78849427,28.8499739 C8.77248898,25.2318431 12.4688254,23.3041615 16.6998822,23.3041615 C18.0879635,23.3041615 19.4371607,23.5450348 20.718833,24.0214345 L21.1012802,24.1714148 L30.9024272,24.1714148 C31.9095469,24.1714148 32.8466618,24.6033252 33.4996094,25.3076077 L33.6350991,25.4626362 L38.821578,20.2021802 C40.0761276,18.7665861 42.2816346,18.5906953 43.7539188,19.8151528 Z M5.77298601,30.7158585 L5.68161957,30.7946006 L2.11853397,34.3208887 L10.7547666,42.9083576 L14.3875685,39.3766471 C14.6887565,39.07909 14.7255035,38.5934417 14.4682744,38.2514884 C14.4219114,38.1901468 6.90423013,30.7532544 6.76994901,30.6725955 C6.45189856,30.4786073 6.05957451,30.5009342 5.77298601,30.7158585 Z M40.1420661,21.3473342 C40.1118443,21.3829191 39.4043786,22.0980049 34.3872107,27.1873147 C34.4071296,27.3371099 34.4181194,27.4882607 34.4181194,27.6407671 C34.4181194,29.4901056 32.9444722,31.0059735 31.0950429,31.1049765 L30.9024272,31.1101196 L23.7312666,31.1101196 C23.2460002,31.1101196 22.8524295,30.7220754 22.8524295,30.2428662 C22.8524295,29.8008321 23.1877796,29.4358995 23.6210472,29.3823716 L23.7312666,29.3756128 L30.9024272,29.3756128 C31.8719298,29.3756128 32.6604449,28.597491 32.6604449,27.6407671 C32.6604449,26.7215769 31.9339327,25.9834558 31.0441876,25.9119417 L30.9024272,25.9062605 L20.921323,25.9062605 C20.8000922,25.9062605 20.6802351,25.8815206 20.5689638,25.8333962 C19.3473835,25.3060628 18.045784,25.0386682 16.6995387,25.0386682 C13.0572665,25.0386682 10.1073592,26.6320424 8.46452138,29.4451881 L8.3143534,29.7124826 L15.2001236,36.5071534 L15.9470838,35.7957955 C16.7105285,35.0679041 17.6996172,34.6433344 18.7537679,34.5863953 L18.9981153,34.5798108 L30.682632,34.5798108 C32.1804157,34.5798108 33.6024371,34.0522933 34.7228798,33.0877347 L34.9428803,32.8890226 L42.8263145,23.5888402 C43.4544478,22.8551147 43.3606914,21.7584238 42.6202566,21.1406033 C41.8805084,20.525155 40.7684823,20.6176756 40.1420661,21.3473342 Z M20.7072528,29.29244 C21.0975824,29.683532 21.0975824,30.3164681 20.7072528,30.7075601 C20.3165324,31.09748 19.6835654,31.09748 19.2924543,30.7075601 C18.9025152,30.3164681 18.9025152,29.683532 19.2924543,29.29244 C19.6835654,28.90252 20.3165324,28.90252 20.7072528,29.29244 Z M13.6000338,0 L34.3999662,0 C35.7785984,0 36.9098922,1.11504986 36.9948754,2.51892388 L37,2.68872224 L37,16.3112778 C37,17.7369358 35.9217305,18.9068186 34.5641637,18.9947006 L34.3999662,19 L13.6000338,19 C12.2214017,19 11.0901078,17.8849501 11.0051246,16.4810762 L11,16.3112778 L11,2.68872224 C11,1.26306425 12.0782696,0.0931813888 13.4358363,0.0052993609 L13.6000338,0 L34.3999662,0 Z M35.2665313,8.96229057 L12.7334688,8.96229057 L12.7334688,16.3112778 C12.7334688,16.7673807 13.0647132,17.1453072 13.4914867,17.2007509 L13.6000338,17.207752 L34.3999662,17.207752 C34.8410243,17.207752 35.2061963,16.8649104 35.2597668,16.4235335 L35.2665313,16.3112778 L35.2665313,8.96229057 Z M26,13 C26.5521689,13 27,13.4481344 27,14.0001953 C27,14.5518656 26.5521689,15 26,15 C25.4478312,15 25,14.5518656 25,14.0001953 C25,13.4481344 25.4478312,13 26,13 Z M33.1664496,13 C33.626856,13 34,13.4477437 34,14.0001953 C34,14.5522563 33.626856,15 33.1664496,15 L33.1664496,15 L29.8332248,15 C29.3731441,15 29,14.5522563 29,14.0001953 C29,13.4477437 29.3731441,13 29.8332248,13 L29.8332248,13 Z M35.2665313,5.37744439 L12.7334688,5.37744439 L12.7334688,7.16969235 L35.2665313,7.16969235 L35.2665313,5.37744439 Z M34.3999662,1.79259821 L13.6000338,1.79259821 C13.1589757,1.79259821 12.7938038,2.13514153 12.7402333,2.57647249 L12.7334688,2.68872224 L12.7334688,3.58484618 L35.2665313,3.58484618 L35.2665313,2.68872224 C35.2665313,2.19461086 34.8777791,1.79259821 34.3999662,1.79259821 Z" id="Combined-Shape"></path>
            </g>
        </g>
    </g>
</svg>