<?xml version="1.0" encoding="UTF-8"?>
<svg width="38px" height="45px" viewBox="0 0 38 45" version="1.1" xmlns="http://www.w3.org/2000/svg" xmlns:xlink="http://www.w3.org/1999/xlink">
    <!-- Generator: sketchtool 57.1 (101010) - https://sketch.com -->
    <title>73E38DF4-D43D-47D0-B3FA-25ED23BB7582</title>
    <desc>Created with sketchtool.</desc>
    <g id="Page-1" stroke="none" stroke-width="1" fill="none" fill-rule="evenodd">
        <g id="Services---GEO" transform="translate(-943.000000, -1228.000000)" fill="#D6E4EF" fill-rule="nonzero">
            <g id="Group-6-Copy-2" transform="translate(942.000000, 1228.000000)">
                <g id="business-and-finance" transform="translate(1.000000, 0.000000)">
                    <path d="M29.8039216,0 C29.9619492,0.00118457201 30.1147753,0.0512598592 30.2423285,0.141973767 L30.3329412,0.2175 L37.7839216,7.7175 C37.8937167,7.83191015 37.9651884,7.97681026 37.9901384,8.13199694 L38,8.25 L38,44.25 C38,44.6296958 37.7196903,44.943491 37.3560074,44.9931534 L37.254902,45 L4.47058824,45 C4.09337414,45 3.7816299,44.7178461 3.73229206,44.3517706 L3.7254902,44.25 L3.7254902,42 L0.745098039,42 C0.367883945,42 0.056139699,41.7178461 0.00680186687,41.3517706 L0,41.25 L0,28.5 C0,28.1203042 0.280309739,27.806509 0.643992649,27.7568466 L0.745098039,27.75 L3.7254902,27.75 L3.7254902,0.75 C3.7254902,0.370304234 4.00579993,0.0565090391 4.36948284,0.006846616 L4.47058824,0 L29.8039216,0 Z M29.0588235,1.5 L5.21568627,1.5 L5.21568627,27.75 L6.70588235,27.75 C7.08309645,27.75 7.39484069,28.0321539 7.44417853,28.3982294 L7.45098039,28.5 L7.45098039,29.25 C9.44213983,29.25 11.068455,27.6776389 11.1713066,25.6991586 L11.1764706,25.5 L11.1764706,23.25 C11.1764706,22.8703042 11.4567803,22.556509 11.8204632,22.5068466 L11.9215686,22.5 L13.4117647,22.5 C14.5911468,22.5035455 15.5560967,23.4233831 15.6409986,24.5895179 L15.6470588,24.75 L15.6470588,28.5 L22.2709804,28.5 C23.452326,28.482562 24.4528832,29.3727436 24.5807843,30.555 C24.6364911,31.2207248 24.3963947,31.8770949 23.925098,32.3475 C23.8129715,32.4617917 23.6879375,32.562477 23.552549,32.6475 C23.7439982,32.982903 23.8442283,33.3631789 23.8431373,33.75 C23.8450539,34.3507057 23.6059349,34.9267441 23.18,35.3475 C23.0678735,35.4617917 22.9428394,35.562477 22.807451,35.6475 C22.9989001,35.982903 23.0991302,36.3631789 23.0980392,36.75 C23.0999558,37.3507057 22.8608369,37.9267441 22.434902,38.3475 C22.3227754,38.4617917 22.1977414,38.562477 22.0623529,38.6475 C22.4545029,39.3431965 22.449249,40.1963793 22.0485614,40.8871291 C21.6764943,41.5285397 21.0156693,41.9399002 20.2869242,41.9939321 L20.1176471,42 L11.6458824,42 C10.3138993,42.0015192 8.99757505,41.7236529 7.78041252,41.1856602 L7.45098039,41.0325 L7.45098039,41.25 C7.45098039,41.6296958 7.17067065,41.943491 6.80698774,41.9931534 L6.70588235,42 L5.21568627,42 L5.21568627,43.5 L36.5098039,43.5 L36.5098039,9 L31.2941176,9 C30.1147356,8.99645451 29.1497856,8.07661687 29.0648837,6.91048209 L29.0588235,6.75 L29.0588235,1.5 Z M5.96078431,29.25 L1.49019608,29.25 L1.49019608,40.5 L5.96078431,40.5 L5.96078431,29.25 Z M13.4117647,24 L12.6666667,24 L12.6666667,25.5 C12.6634639,28.3256711 10.4453674,30.6289216 7.66586751,30.7453827 L7.45098039,30.75 L7.45098039,39.3375 C8.62120516,40.0419304 9.94673853,40.4385062 11.3055554,40.4934926 L11.6458824,40.5001032 L20.1176471,40.5001032 C20.3117544,40.503363 20.4983249,40.4244335 20.6317647,40.2825 C20.7805082,40.1461563 20.8645131,39.9524924 20.8627451,39.75 C20.8627451,39.3357864 20.5291533,39 20.1176471,39 C19.7061408,39 19.372549,38.6642136 19.372549,38.25 C19.372549,37.8703042 19.6528588,37.556509 20.0165417,37.5068466 L20.1176471,37.5 L20.8627451,37.5 C21.0568525,37.503363 21.2434229,37.4244335 21.3768627,37.2825 C21.5256063,37.1461563 21.6096111,36.9524924 21.6078431,36.75 C21.6078431,36.3357864 21.2742514,36 20.8627451,36 C20.4512388,36 20.1176471,35.6642136 20.1176471,35.25 C20.1176471,34.8703042 20.3979568,34.556509 20.7616397,34.5068466 L20.8627451,34.5 L21.6078431,34.5 C21.8019505,34.503363 21.988521,34.4244335 22.1219608,34.2825 C22.2707043,34.1461563 22.3547091,33.9524924 22.3529412,33.75 C22.3529412,33.3357864 22.0193494,33 21.6078431,33 C21.1963369,33 20.8627451,32.6642136 20.8627451,32.25 C20.8627451,31.8703042 21.1430548,31.556509 21.5067377,31.5068466 L21.6078431,31.5 L22.3529412,31.5 C22.5470485,31.503363 22.733619,31.4244335 22.8670588,31.2825 C23.0310869,31.1285315 23.1161695,30.9075192 23.0980392,30.6825 C23.0366108,30.3156477 22.7391911,30.0414711 22.380313,30.0039971 L22.2709804,30 L14.9019608,30 C14.5247467,30 14.2130024,29.7178461 14.1636646,29.3517706 L14.1568627,29.25 L14.1568627,24.75 C14.1568627,24.3357864 13.823271,24 13.4117647,24 Z M33.2857143,38 C33.6802034,38 34,38.2238576 34,38.5 C34,38.7510385 33.7357053,38.9588665 33.3912662,38.9945787 L33.2857143,39 L24.7142857,39 C24.3197966,39 24,38.7761424 24,38.5 C24,38.2489615 24.2642947,38.0411335 24.6087338,38.0054213 L24.7142857,38 L33.2857143,38 Z M25.8511278,33.0087631 C26.332593,32.2080157 27.2898211,31.8262946 28.1912222,32.0755859 C29.0926233,32.3248773 29.7168044,33.1439527 29.717131,34.0779444 L29.717131,34.0779444 L29.717131,34.2597052 C29.7191414,34.7311268 29.5639368,35.1898032 29.2759954,35.5633936 L29.2759954,35.5633936 L29.989807,35.5633936 L30.5073203,34.5319901 C30.6100071,34.3274545 30.8047792,34.1845751 31.0309407,34.1478766 C31.2571021,34.1111781 31.4871586,34.1851219 31.6494187,34.3466653 L31.6494187,34.3466653 L32.8678949,35.5633936 L33.2861885,35.5633936 C33.6804157,35.5633936 34,35.8825194 34,36.2761811 C34,36.6698428 33.6804157,36.9889686 33.2861885,36.9889686 L33.2861885,36.9889686 L32.572377,36.9889686 C32.3843155,36.987987 32.20424,36.9129351 32.0712813,36.7801219 L32.0712813,36.7801219 L31.3439074,36.0537914 L31.0733728,36.5947971 C30.9518636,36.837622 30.7027802,36.9904504 30.4309425,36.9889686 L30.4309425,36.9889686 L27.5756964,36.9889686 C27.287034,36.9889071 27.0268225,36.8152427 26.9163645,36.5489325 C26.8059065,36.2826223 26.8669473,35.9760935 27.0710317,35.7722403 L27.0710317,35.7722403 L28.0803612,34.7643588 C28.2144111,34.6305417 28.289657,34.4489798 28.2895079,34.2597052 L28.2895079,34.2597052 L28.2895079,34.0779444 C28.2889617,33.785073 28.0931828,33.5283967 27.8105806,33.4500456 C27.5279784,33.3716945 27.2277036,33.4908406 27.0760284,33.7415087 L27.0760284,33.7415087 L25.3321869,36.6432667 C25.2032634,36.8665316 24.9636874,37.0029134 24.7056118,37 C24.4475362,36.9969921 24.2111611,36.8551502 24.0874084,36.6289866 C23.9636556,36.4028229 23.971802,36.1275668 24.1087139,35.9090956 L24.1087139,35.9090956 Z M32.2727273,26 C32.6743889,26 33,26.2238576 33,26.5 C33,26.7510385 32.7308999,26.9588665 32.3801983,26.9945787 L32.2727273,27 L17.7272727,27 C17.3256111,27 17,26.7761424 17,26.5 C17,26.2489615 17.2691001,26.0411335 17.6198017,26.0054213 L17.7272727,26 L32.2727273,26 Z M32.2727273,23 C32.6743889,23 33,23.2238576 33,23.5 C33,23.7510385 32.7308999,23.9588665 32.3801983,23.9945787 L32.2727273,24 L17.7272727,24 C17.3256111,24 17,23.7761424 17,23.5 C17,23.2489615 17.2691001,23.0411335 17.6198017,23.0054213 L17.7272727,23 L32.2727273,23 Z M8.76470588,20 L33.2352941,20 C33.6576295,20 34,20.2238576 34,20.5 C34,20.7510385 33.7170492,20.9588665 33.3482967,20.9945787 L33.2352941,21 L8.76470588,21 C8.34237049,21 8,20.7761424 8,20.5 C8,20.2489615 8.28295081,20.0411335 8.65170325,20.0054213 L8.76470588,20 L33.2352941,20 Z M33.2352941,17 C33.6576295,17 34,17.2238576 34,17.5 C34,17.7510385 33.7170492,17.9588665 33.3482967,17.9945787 L33.2352941,18 L8.76470588,18 C8.34237049,18 8,17.7761424 8,17.5 C8,17.2489615 8.28295081,17.0411335 8.65170325,17.0054213 L8.76470588,17 L33.2352941,17 Z M33.2352941,14 C33.6576295,14 34,14.2238576 34,14.5 C34,14.7510385 33.7170492,14.9588665 33.3482967,14.9945787 L33.2352941,15 L8.76470588,15 C8.34237049,15 8,14.7761424 8,14.5 C8,14.2489615 8.28295081,14.0411335 8.65170325,14.0054213 L8.76470588,14 L33.2352941,14 Z M33.2352941,11 C33.6576295,11 34,11.2238576 34,11.5 C34,11.7510385 33.7170492,11.9588665 33.3482967,11.9945787 L33.2352941,12 L8.76470588,12 C8.34237049,12 8,11.7761424 8,11.5 C8,11.2489615 8.28295081,11.0411335 8.65170325,11.0054213 L8.76470588,11 L33.2352941,11 Z M30.5490196,2.5575 L30.5490196,6.75 C30.5490196,7.12969577 30.8293293,7.44349096 31.1930123,7.49315338 L31.2941176,7.5 L35.4592157,7.5 L30.5490196,2.5575 Z M26.2777778,5 C26.6766501,5 27,5.22385763 27,5.5 C27,5.75103852 26.7327687,5.95886651 26.3845025,5.99457872 L26.2777778,6 L14.7222222,6 C14.3233499,6 14,5.77614237 14,5.5 C14,5.24896148 14.2672313,5.04113349 14.6154975,5.00542128 L14.7222222,5 L26.2777778,5 Z" id="Combined-Shape"></path>
                </g>
            </g>
        </g>
    </g>
</svg>