<?xml version="1.0" encoding="UTF-8"?>
<svg width="40px" height="45px" viewBox="0 0 40 45" version="1.1" xmlns="http://www.w3.org/2000/svg" xmlns:xlink="http://www.w3.org/1999/xlink">
    <!-- Generator: sketchtool 57.1 (101010) - https://sketch.com -->
    <title>1CD5BD3C-B018-4DD5-91E4-3C0F24B10556</title>
    <desc>Created with sketchtool.</desc>
    <g id="Page-1" stroke="none" stroke-width="1" fill="none" fill-rule="evenodd">
        <g id="Services---GEO" transform="translate(-220.000000, -1492.000000)" fill="#D6E4EF" fill-rule="nonzero">
            <g id="Group-7" transform="translate(219.000000, 1492.000000)">
                <g id="accepted" transform="translate(1.000000, 0.000000)">
                    <path d="M0.725806452,0 L25.4032258,0 C25.5572246,0 25.7061792,0.0489325185 25.8292947,0.13819564 L25.9164617,0.212570565 L31.7229133,6.01902218 C31.8318041,6.12791859 31.9025193,6.26785266 31.9264461,6.41802967 L31.9354839,6.53225806 L31.9354839,25.4337097 C36.4459003,25.8164068 39.9137585,29.586284 39.9193548,34.1129032 C39.9138661,38.5524721 36.577999,42.2641245 32.1945263,42.7662788 L31.9354839,42.7920968 L31.9354839,44.2741935 C31.9354839,44.6416411 31.6624317,44.9453138 31.3081651,44.9933742 L31.2096774,45 L0.725806452,45 C0.358358937,45 0.0546861669,44.7269479 0.00662575742,44.3726812 L2.62900812e-13,44.2741935 L2.62900812e-13,0.725806452 C2.62900812e-13,0.358358937 0.273052144,0.0546861669 0.627318815,0.00662575742 L0.725806452,0 L25.4032258,0 Z M24.6774194,1.4516129 L1.4516129,1.4516129 L1.4516129,43.5483871 L30.483871,43.5483871 L30.483871,42.7920968 C25.9717515,42.4135915 22.5022595,38.6408706 22.5022595,34.1129032 C22.5022595,29.6720122 25.8395926,25.9575989 30.2247304,25.4592935 L30.483871,25.4337097 L30.483871,7.25806452 L25.4032258,7.25806452 C25.0357783,7.25806452 24.7321055,6.98501237 24.6840451,6.6307457 L24.6774194,6.53225806 L24.6774194,1.4516129 Z M6.53225806,41.3709677 C6.9331099,41.3709677 7.25806452,41.6959224 7.25806452,42.0967742 C7.25806452,42.4642217 6.98501237,42.7678945 6.6307457,42.8159549 L6.53225806,42.8225806 L2.90322581,42.8225806 C2.50237397,42.8225806 2.17741935,42.497626 2.17741935,42.0967742 C2.17741935,41.7293267 2.4504715,41.4256539 2.80473817,41.3775935 L2.90322581,41.3709677 L6.53225806,41.3709677 Z M9.43548387,41.3709677 C9.83633571,41.3709677 10.1612903,41.6959224 10.1612903,42.0967742 C10.1612903,42.4642217 9.88823818,42.7678945 9.53397151,42.8159549 L9.43548387,42.8225806 L8.70967742,42.8225806 C8.30882558,42.8225806 7.98387097,42.497626 7.98387097,42.0967742 C7.98387097,41.7293267 8.25692311,41.4256539 8.61118978,41.3775935 L8.70967742,41.3709677 L9.43548387,41.3709677 Z M31.2096774,26.8548387 C27.2011591,26.8548387 23.9516129,30.1043849 23.9516129,34.1129032 C23.9516129,38.1214216 27.2011591,41.3709677 31.2096774,41.3709677 C35.2163097,41.366418 38.4631921,38.1195355 38.4677419,34.1129032 C38.4677419,30.1043849 35.2181958,26.8548387 31.2096774,26.8548387 Z M36.2903226,31.209651 C36.4828249,31.209651 36.6674423,31.2861248 36.8035585,31.422248 C36.9397649,31.5583752 37.0162916,31.7430509 37.0162916,31.93562 C37.0162916,32.128189 36.9397649,32.3128647 36.8035585,32.4489919 L36.8035585,32.4489919 L31.7229133,37.5296371 C31.4873405,37.7650548 31.1217789,37.8099411 30.83625,37.6385081 L30.83625,37.6385081 L27.2072177,35.4610887 C26.9848631,35.3276759 26.8505738,35.0857727 26.8549354,34.8265016 C26.8592969,34.5672304 27.0016466,34.3299809 27.2283628,34.2041225 C27.455079,34.0782641 27.731718,34.0829179 27.9540726,34.2163306 L27.9540726,34.2163306 L31.0971774,36.1021573 L35.7770867,31.422248 C35.9132029,31.2861248 36.0978203,31.209651 36.2903226,31.209651 Z M5.80645161,30.483871 C6.20730345,30.483871 6.53225806,30.8088256 6.53225806,31.2096774 C6.53225806,31.5771249 6.25920592,31.8807977 5.90493925,31.9288581 L5.80645161,31.9354839 L4.35483871,31.9354839 C3.95398688,31.9354839 3.62903226,31.6105293 3.62903226,31.2096774 C3.62903226,30.8422299 3.9020844,30.5385571 4.25635107,30.4904967 L4.35483871,30.483871 L5.80645161,30.483871 Z M8.70967742,30.483871 C9.11052925,30.483871 9.43548387,30.8088256 9.43548387,31.2096774 C9.43548387,31.5771249 9.16243173,31.8807977 8.80816506,31.9288581 L8.70967742,31.9354839 L7.98387097,31.9354839 C7.58301913,31.9354839 7.25806452,31.6105293 7.25806452,31.2096774 C7.25806452,30.8422299 7.53111666,30.5385571 7.88538333,30.4904967 L7.98387097,30.483871 L8.70967742,30.483871 Z M13.7903226,28.3064516 C14.1911744,28.3064516 14.516129,28.6314062 14.516129,29.0322581 C14.516129,29.3997056 14.2430769,29.7033783 13.8888102,29.7514388 L13.7903226,29.7580645 L4.35483871,29.7580645 C3.95398688,29.7580645 3.62903226,29.4331099 3.62903226,29.0322581 C3.62903226,28.6648105 3.9020844,28.3611378 4.25635107,28.3130774 L4.35483871,28.3064516 L13.7903226,28.3064516 Z M18.1451613,26.1290323 C18.5460131,26.1290323 18.8709677,26.4539869 18.8709677,26.8548387 C18.8709677,27.2222862 18.5979156,27.525959 18.2436489,27.5740194 L18.1451613,27.5806452 L4.35483871,27.5806452 C3.95398688,27.5806452 3.62903226,27.2556905 3.62903226,26.8548387 C3.62903226,26.4873912 3.9020844,26.1837184 4.25635107,26.135658 L4.35483871,26.1290323 L18.1451613,26.1290323 Z M27.5806452,20.3225806 C27.9480927,20.3225806 28.2517654,20.5956328 28.2998259,20.9498995 L28.3064516,21.0483871 L28.3064516,23.9516129 C28.3064516,24.3190604 28.0333995,24.6227332 27.6791328,24.6707936 L27.5806452,24.6774194 L4.35483871,24.6774194 C3.98739119,24.6774194 3.68371842,24.4043672 3.63565802,24.0501005 L3.62903226,23.9516129 L3.62903226,21.0483871 C3.62903226,20.6809396 3.9020844,20.3772668 4.25635107,20.3292064 L4.35483871,20.3225806 L27.5806452,20.3225806 Z M26.8548387,21.7741935 L5.08064516,21.7741935 L5.08064516,23.2258065 L26.8548387,23.2258065 L26.8548387,21.7741935 Z M27.5806452,14.516129 C27.9480927,14.516129 28.2517654,14.7891812 28.2998259,15.1434478 L28.3064516,15.2419355 L28.3064516,18.1451613 C28.3064516,18.5126088 28.0333995,18.8162816 27.6791328,18.864342 L27.5806452,18.8709677 L4.35483871,18.8709677 C3.98739119,18.8709677 3.68371842,18.5979156 3.63565802,18.2436489 L3.62903226,18.1451613 L3.62903226,15.2419355 C3.62903226,14.874488 3.9020844,14.5708152 4.25635107,14.5227548 L4.35483871,14.516129 L27.5806452,14.516129 Z M26.8548387,15.9677419 L5.08064516,15.9677419 L5.08064516,17.4193548 L26.8548387,17.4193548 L26.8548387,15.9677419 Z M27.5806452,8.70967742 C27.9480927,8.70967742 28.2517654,8.98272956 28.2998259,9.33699623 L28.3064516,9.43548387 L28.3064516,12.3387097 C28.3064516,12.7061572 28.0333995,13.00983 27.6791328,13.0578904 L27.5806452,13.0645161 L4.35483871,13.0645161 C3.98739119,13.0645161 3.68371842,12.791464 3.63565802,12.4371973 L3.62903226,12.3387097 L3.62903226,9.43548387 C3.62903226,9.06803636 3.9020844,8.76436359 4.25635107,8.71630318 L4.35483871,8.70967742 L27.5806452,8.70967742 Z M26.8548387,10.1612903 L5.08064516,10.1612903 L5.08064516,11.6129032 L26.8548387,11.6129032 L26.8548387,10.1612903 Z M26.1290323,2.47799395 L26.1290323,5.80645161 L29.4574899,5.80645161 L26.1290323,2.47799395 Z" id="Combined-Shape"></path>
                </g>
            </g>
        </g>
    </g>
</svg>