<?xml version="1.0" encoding="UTF-8"?>
<svg width="45px" height="45px" viewBox="0 0 45 45" version="1.1" xmlns="http://www.w3.org/2000/svg" xmlns:xlink="http://www.w3.org/1999/xlink">
    <!-- Generator: sketchtool 57.1 (101010) - https://sketch.com -->
    <title>3C10220A-3C80-4A8E-B112-0A8AA962A30F</title>
    <desc>Created with sketchtool.</desc>
    <g id="Page-1" stroke="none" stroke-width="1" fill="none" fill-rule="evenodd">
        <g id="Services---GEO" transform="translate(-584.000000, -1492.000000)" fill="#D6E4EF" fill-rule="nonzero">
            <g id="Group-6" transform="translate(581.000000, 1492.000000)">
                <g id="hired" transform="translate(3.000000, 0.000000)">
                    <path d="M26.8098926,21.6210938 C27.2578914,21.6210938 27.627706,21.956372 27.6819497,22.3897492 L27.6887988,22.5 L27.6887988,29.6780273 C27.6887988,31.0051758 27.1873828,32.2170117 26.3648145,33.1355566 C26.3738672,33.1377539 26.3830078,33.1395996 26.3919727,33.1421484 C28.6910156,33.3541406 30.6916699,34.6108008 31.9128223,36.4329492 C32.4519434,36.1511719 33.03,35.9586914 33.6308203,35.8612207 C33.1972646,35.2614727 32.9230354,34.5394178 32.872525,33.7571421 L32.8640625,33.4942383 L32.8640625,30.6270703 C32.8640625,28.8738645 34.2412043,27.4362673 35.9705593,27.3392074 L36.1571484,27.3339844 L40.0851563,27.3339844 C40.533155,27.3339844 40.9029697,27.6692627 40.9572134,28.1026399 L40.9640625,28.2128906 L40.9640625,33.4942383 C40.9640625,34.3779785 40.6786816,35.1959766 40.1963379,35.8625391 C42.8390884,36.2944738 44.8804407,38.539478 44.994932,41.274748 L45,41.517334 L45,44.1210938 C45,44.5691737 44.6646468,44.9389197 44.2313272,44.9931523 L44.1210938,45 L0.87890625,45 C0.430907452,45 0.0610928254,44.6647217 0.00684914799,44.2313445 L0,44.1210938 L0,41.517334 C0,38.6731055 2.08318359,36.3071777 4.80366211,35.8625391 C4.36955273,35.2626328 4.0949833,34.540135 4.04441051,33.7573238 L4.0359375,33.4942383 L4.0359375,30.6270703 C4.0359375,28.8738645 5.4130793,27.4362673 7.14243433,27.3392074 L7.32902344,27.3339844 L11.2570312,27.3339844 C11.70503,27.3339844 12.0748447,27.6692627 12.1290884,28.1026399 L12.1359375,28.2128906 L12.1359375,33.4942383 C12.1359375,34.3775391 11.8507324,35.1950977 11.368916,35.8614844 C11.9694727,35.9589551 12.5476172,36.1516113 13.0869141,36.4333008 C14.3079785,34.6108887 16.3087207,33.3540527 18.6080273,33.1420605 C18.6169922,33.1395996 18.6261328,33.137666 18.6351855,33.1354688 C17.8674551,32.2781602 17.379484,31.1653625 17.3178333,29.9417789 L17.3112012,29.6779395 L17.3112012,25.7811328 C17.3112012,23.5567862 19.0659946,21.7345884 21.2639259,21.6261947 L21.4712402,21.6210938 L26.8098926,21.6210938 Z M11.086084,37.5965332 L8.70741211,39.975293 C8.5425293,40.1400879 8.31902344,40.2327246 8.0859375,40.2327246 C7.89169922,40.2327246 7.70411377,40.1683936 7.5515625,40.0515824 L7.46446289,39.975293 L5.08649414,37.5973242 C3.26624899,37.895522 1.8578846,39.4345238 1.7629204,41.3146298 L1.7578125,41.517334 L1.7578125,43.2421875 L11.8258594,43.2421875 L11.8258594,40.5822656 C11.8258594,39.6744434 11.9889844,38.8040625 12.2867578,37.998457 C11.9102344,37.8003516 11.5062012,37.6649121 11.086084,37.5965332 Z M26.4653613,34.9193848 L23.1214746,38.2632715 C22.9498242,38.4349219 22.7249121,38.5207031 22.5,38.5207031 C22.3125732,38.5207031 22.1251465,38.4611328 21.9685425,38.3419413 L21.8785254,38.2632715 L18.5346387,34.9193848 C16.1026694,35.2462527 14.1501754,37.10698 13.6880438,39.4939558 L13.6480078,39.7265625 L19.3066699,39.7265625 C19.792002,39.7265625 20.1855762,40.1200488 20.1855762,40.6054688 C20.1855762,41.0535487 19.850223,41.4232947 19.4169034,41.4775273 L19.3066699,41.484375 L13.5837598,41.484375 L13.5837598,43.2421875 L31.4162402,43.2421875 L31.4162402,40.5822656 C31.4162402,37.6901367 29.256416,35.294502 26.4653613,34.9193848 Z M33.9135645,37.5963574 C33.4933594,37.6646484 33.0894141,37.8 32.7130664,37.9982813 C32.9736951,38.7032629 33.1311662,39.457771 33.1664617,40.2436115 L33.1740527,40.5822656 L33.1740527,43.2421875 L43.2420996,43.2421875 L43.2420996,41.517334 C43.2420996,39.614011 41.8965023,38.0197419 40.1068271,37.6339894 L39.913418,37.5973242 L37.5354492,39.975293 C37.3705664,40.1400879 37.1470605,40.2327246 36.9139746,40.2327246 C36.7197363,40.2327246 36.5321509,40.1683936 36.3795996,40.0515824 L36.2925,39.975293 L33.9135645,37.5963574 Z M22.5,39.7265625 C22.7311523,39.7265625 22.9579102,39.8206055 23.1212988,39.984082 C23.2848633,40.1475586 23.3789062,40.3743164 23.3789062,40.6054688 C23.3789062,40.8366211 23.2847754,41.0633789 23.1212988,41.2268555 C22.9579102,41.390332 22.7311523,41.484375 22.5,41.484375 C22.2688477,41.484375 22.0421777,41.390332 21.8786133,41.2268555 C21.7150488,41.0633789 21.6210938,40.8366211 21.6210938,40.6054688 C21.6210938,40.3743164 21.7151367,40.1475586 21.8786133,39.984082 C22.0420898,39.8206055 22.2688477,39.7265625 22.5,39.7265625 Z M8.65256836,37.5442383 L7.51930664,37.5442383 L8.0859375,38.1108691 L8.65256836,37.5442383 Z M37.4806934,37.5442383 L36.3474316,37.5442383 L36.9140625,38.1108691 L37.4806934,37.5442383 Z M24.0321094,34.8667383 L20.9678906,34.8667383 L22.5,36.3988477 L24.0321094,34.8667383 Z M10.378125,32.6987402 C10.1411016,32.7880371 9.88849687,32.8452152 9.62548594,32.8645146 L9.42635742,32.8717969 L5.79375,32.8717969 L5.79375,33.4942383 C5.79375,34.7581055 6.82198242,35.7864258 8.0859375,35.7864258 C9.29722778,35.7864258 10.2920297,34.8420135 10.372827,33.6509375 L10.378125,33.4942383 L10.378125,32.6987402 Z M39.20625,32.6987402 C38.9692266,32.7880371 38.7166219,32.8452152 38.4536109,32.8645146 L38.2544824,32.8717969 L34.621875,32.8717969 L34.621875,33.4942383 C34.621875,34.7581055 35.6501074,35.7864258 36.9140625,35.7864258 C38.1253528,35.7864258 39.1201547,34.8420135 39.200952,33.6509375 L39.20625,33.4942383 L39.20625,32.6987402 Z M25.9310742,28.1061914 C25.5210268,28.3302372 25.0595149,28.4715653 24.5692313,28.5073724 L24.3217969,28.516377 L19.0691016,28.516377 L19.0691016,29.6780273 C19.0691016,31.569873 20.6082422,33.1090137 22.5000879,33.1090137 C24.3288721,33.1090137 25.8280729,31.6707723 25.9259877,29.8659923 L25.9310742,29.6780273 L25.9310742,28.1061914 Z M10.378125,29.0917969 L7.32902344,29.0917969 C6.52949219,29.0917969 5.87076063,29.70611 5.80003593,30.4875292 L5.79375,30.6270703 L5.79375,31.1140723 L9.42635742,31.1140723 C9.91366699,31.1140723 10.3166298,30.7459173 10.3717097,30.2730731 L10.378125,30.1622168 L10.378125,29.0917969 Z M39.20625,29.0917969 L36.1571484,29.0917969 C35.3576172,29.0917969 34.6988856,29.70611 34.6281609,30.4875292 L34.621875,30.6270703 L34.621875,31.1140723 L38.2544824,31.1140723 C38.741792,31.1140723 39.1447548,30.7459173 39.1998347,30.2730731 L39.20625,30.1622168 L39.20625,29.0917969 Z M25.9309863,23.3789062 L21.4712402,23.3789062 C20.2018323,23.3789062 19.1592447,24.3686018 19.0745662,25.6169043 L19.0690137,25.7811328 L19.0689258,25.7811328 L19.0689258,26.7586523 L24.321709,26.7586523 C25.1597559,26.7586523 25.850261,26.1147054 25.9243972,25.2956386 L25.9309863,25.149375 L25.9309863,23.3789062 Z M26.0936719,0.7621875 C29.2753125,2.18109375 31.3311621,5.3484082 31.3311621,8.83125 C31.3311621,13.7007422 27.3694922,17.6624121 22.5,17.6624121 C17.6305078,17.6624121 13.6689258,13.7007422 13.6689258,8.83116211 C13.6689258,5.36633789 15.7099219,2.20570313 18.8685352,0.7790625 C19.3105371,0.579287109 19.8314648,0.775898438 20.0312402,1.21833984 C20.2311035,1.66069336 20.0344043,2.18135742 19.5920508,2.38113281 C17.0616797,3.52397461 15.4266504,6.05583984 15.4266504,8.83125 C15.4266504,12.7314844 18.5997656,15.9045996 22.5,15.9045996 C26.4002344,15.9045996 29.5733496,12.7314844 29.5733496,8.83125 C29.5733496,6.04142578 27.9264551,3.50428711 25.3777148,2.36759766 C24.9343945,2.16993164 24.7352344,1.65023438 24.9329883,1.20691406 C25.1307422,0.76359375 25.6504395,0.564521484 26.0936719,0.7621875 Z M26.8316016,5.74259766 C27.1462134,6.05720947 27.172431,6.5510614 26.9102545,6.89554657 L26.8316016,6.98554687 L21.8972461,11.9199023 C21.7323633,12.0846973 21.5088574,12.177334 21.2757715,12.177334 C21.0815332,12.177334 20.8939478,12.1130029 20.7413965,11.9961918 L20.6542969,11.9199023 L18.1683984,9.43400391 C17.8251855,9.09070312 17.8251855,8.53417969 18.1683984,8.1909668 C18.4830908,7.87635498 18.9768018,7.85013733 19.3213306,8.11238154 L19.4113477,8.19105469 L21.2757715,10.0554785 L25.5885645,5.74259766 C25.9319531,5.39938477 26.4883008,5.39938477 26.8316016,5.74259766 Z M22.5,0 L22.5314648,0 C23.0168848,0.00228515625 23.4085254,0.397617188 23.4062502,0.883037109 C23.4041316,1.32981896 23.0690648,1.69714353 22.6372535,1.75101132 L22.5274219,1.7578125 L22.5,1.7578125 C22.014668,1.7578125 21.6210938,1.36432617 21.6210938,0.87890625 C21.6210938,0.430826322 21.9564469,0.0610803439 22.3897665,0.00684770781 L22.5,0 L22.5314648,0 Z" id="Combined-Shape"></path>
                </g>
            </g>
        </g>
    </g>
</svg>