<?xml version="1.0" encoding="UTF-8"?>
<svg width="470px" height="439px" viewBox="0 0 470 439" version="1.1" xmlns="http://www.w3.org/2000/svg" xmlns:xlink="http://www.w3.org/1999/xlink">
    <!-- Generator: sketchtool 57.1 (101010) - https://sketch.com -->
    <title>0B2842B0-4F07-45B8-8591-88CFD2CD043B</title>
    <desc>Created with sketchtool.</desc>
    <g id="Page-1" stroke="none" stroke-width="1" fill="none" fill-rule="evenodd" fill-opacity="0.418515079">
        <g id="Landing-page-3" transform="translate(-326.000000, -1006.000000)" fill="#882D85" fill-rule="nonzero">
            <g id="Group-4" transform="translate(220.000000, 1006.000000)">
                <g id="planet-earth">
                    <path d="M456.612499,-108.392733 C528.450249,-89.1435235 588.492005,-43.0722691 625.678272,21.336539 C659.393082,79.7325529 670.777854,148.28624 657.738401,214.363879 C644.819703,279.810538 608.951958,338.420868 556.741925,379.398599 C552.013954,383.109408 545.177651,382.284783 541.469033,377.557881 C537.758239,372.830978 538.58286,365.99356 543.309743,362.284927 C615.626166,305.525106 649.839229,215.264656 638.951622,128.010058 C637.530974,134.068918 634.606451,139.552975 630.37191,143.943963 L629.958033,144.365467 L622.918295,151.405234 C620.85783,153.467883 618.080446,154.591678 615.22691,154.591678 C614.442541,154.591678 613.65382,154.506822 612.870539,154.333847 C609.35019,153.552482 606.450893,151.078079 605.121587,147.738227 L605.005092,147.432243 L590.215223,106.763474 C590.019403,106.225432 589.746054,105.728153 589.399971,105.278488 L589.220891,105.057655 L575.81917,89.3669487 C574.822542,88.1997586 573.396039,87.5032004 571.872337,87.4294075 L571.602507,87.4228808 L566.407831,87.4228808 L566.986589,88.2921087 C569.864059,92.6077872 569.294004,98.3507835 565.627814,102.018077 C551.519609,116.124199 534.222735,127.281343 515.548928,134.327841 L514.581823,134.688644 L506.384569,137.710815 C501.349496,139.573608 495.718767,137.470237 493.119745,132.800997 L492.978497,132.538964 L464.827158,78.615285 C464.073561,77.1717264 463.653902,75.5790207 463.597796,73.9556281 L463.591315,73.5805082 L463.591315,65.9565418 L448.40219,51.4581686 L432.384093,45.8283133 C426.716184,43.836378 423.736452,37.6277628 425.72838,31.9587433 C427.686582,26.3847986 433.72433,23.4063644 439.318572,25.2088831 L439.597894,25.3030032 L457.825496,31.7085275 C459.160791,32.178226 460.390961,32.9029679 461.447293,33.8416933 L461.731023,34.1029838 L481.979925,53.4337854 C484.047963,55.4055947 485.252005,58.1116524 485.341564,60.9591051 L485.346946,61.3014402 L485.346946,70.9108145 L507.833639,113.983831 C520.569916,109.184358 532.550301,102.124445 542.970661,93.3182941 L543.749251,92.6545666 L542.08913,90.1621998 C538.859184,85.3188924 538.558926,79.1200682 541.305849,73.9873808 C543.996713,68.9605078 549.158582,65.7970748 554.842314,65.6700488 L555.198209,65.6660739 L571.602507,65.6660739 C579.445799,65.6660739 586.87365,69.0199621 592.058172,74.8871734 L592.360543,75.2351961 L605.762264,90.9259019 C607.759223,93.2624958 609.333561,95.8935863 610.444943,98.7537362 L610.661034,99.3288009 L618.174005,119.990098 C618.177268,119.903066 618.179444,119.816035 618.180532,119.727915 C618.312785,111.823613 621.705364,104.264376 627.510473,98.909821 L627.861668,98.5912082 L632.473235,94.4789661 C626.823821,73.055055 618.326309,52.1087297 606.839275,32.2122227 C564.144388,-41.7378357 489.954865,-86.4130539 410.896627,-94.6787453 L408.49946,-94.9180688 L377.208471,-55.6679144 C376.012131,-54.1676396 374.441936,-53.0125376 372.660131,-52.316451 L372.300997,-52.1833876 L301.911229,-27.5055833 L285.947526,11.1897448 L302.17341,33.9191296 C310.977604,19.7090027 326.613399,10.6263261 343.736489,10.4366864 L344.28347,10.4336579 L350.468126,10.4336579 C356.474369,10.4336579 361.345942,15.3052506 361.345942,21.3115174 C361.345942,27.220909 356.630249,32.0319336 350.757849,32.1855907 L350.468126,32.1893769 L344.28347,32.1893769 C332.743436,32.1893769 322.357216,39.4012726 318.307334,50.178593 L318.165398,50.565007 L317.897777,51.3113028 C323.094629,50.7281912 328.346964,50.5388975 333.098869,50.3702739 C336.124292,50.2636602 338.984356,50.162486 341.244992,49.9731923 C345.224495,49.634857 365.397245,48.6285544 371.474201,61.4831186 C372.518575,63.6921384 373.516917,67.1890656 372.54086,71.5433889 L372.443511,71.9541055 L373.067787,72.3705594 C376.459483,74.630156 381.659509,78.0672907 385.482965,79.9022645 C386.662238,77.0258708 388.675923,75.2362839 389.355854,74.6912487 C391.929803,72.6286003 395.395821,71.1936671 400.951677,69.8914571 C403.025196,69.4040802 405.198801,69.5378913 407.201607,70.2776597 C409.591702,71.1599424 413.215465,72.1412234 417.05463,73.1801629 C428.469863,76.2719597 441.408143,79.7749808 448.271643,87.0475571 C455.907546,95.141494 460.392917,106.752595 464.350662,116.996211 C465.846512,120.866941 467.259681,124.523355 468.673939,127.545527 C469.467011,129.239379 470.249204,130.984362 471.042276,132.752191 C475.025042,141.634852 479.142707,150.818859 485.873485,155.219393 C487.399795,156.216993 492.195216,156.95241 495.368592,157.439786 C503.40375,158.671283 513.404726,160.205215 517.339625,169.332652 C521.35394,178.641767 514.86685,188.033562 512.734585,191.121008 C507.861924,198.174917 501.558688,204.045197 495.46215,209.72292 C481.397904,222.820084 475.580954,229.682525 478.906635,240.41243 C482.858941,253.164732 486.590405,265.208815 472.100793,280.975674 C471.244624,281.906912 470.4472,282.757645 469.698731,283.552896 C465.400477,288.130757 464.102623,289.510208 462.316308,295.136799 C459.965377,302.544275 456.335086,306.630407 453.418452,309.914762 C451.968295,311.54878 450.822746,312.839023 449.850172,314.503502 C449.214844,315.591396 448.88195,317.255875 448.45876,319.364215 C447.610206,323.603741 446.447251,329.40766 441.725807,335.203963 C434.208485,344.43475 417.844438,358.995133 402.162499,358.996221 C398.940168,358.997309 395.750474,358.382648 392.66848,356.98144 C386.784081,354.305219 379.4517,347.658182 369.670478,318.634238 C368.455305,315.024603 366.600452,310.940646 364.635722,306.614089 C358.587052,293.29173 351.731167,278.189575 356.649519,262.964488 C356.933458,262.081118 357.21631,261.219505 357.493722,260.375299 C360.731284,250.508094 362.208639,246.005297 358.815509,237.874372 C358.332226,236.715868 356.866678,235.043519 355.350283,233.369772 L354.870818,232.841771 C351.498358,229.129874 347.300189,224.509585 345.675969,217.824472 C344.662055,213.645868 344.684901,209.98619 344.705571,207.044523 C344.734944,202.422058 344.601133,202.164227 343.145536,200.801095 C340.153838,198.000854 337.199128,198.231488 327.872644,200.538912 C324.490393,201.376591 320.995001,202.241468 317.246131,202.680977 C294.235074,205.387659 272.675264,196.138378 259.597734,177.943339 C246.073081,159.124935 244.011529,134.014149 254.218116,112.409647 C258.860144,102.588134 265.394014,95.235053 271.713569,88.1256608 C272.921127,86.7679682 274.139564,85.3972208 275.356913,83.9938366 C276.757028,82.3815766 278.78268,79.5062708 280.928,76.4612534 C285.662428,69.7422751 289.651069,64.2886962 293.717207,60.464341 L294.12411,60.0873497 L264.742367,18.9301158 C262.631465,15.9720971 262.140925,12.1650209 263.415574,8.77760665 L263.540249,8.46130476 L283.657517,-40.3068407 C284.796771,-43.0700156 287.022453,-45.2383841 289.802946,-46.308615 L290.114146,-46.4229849 L362.148805,-71.6762855 L381.574175,-96.0440398 C338.886446,-95.6208488 295.745066,-84.5602229 256.213307,-61.7361913 C245.438841,-55.5166971 235.300791,-48.6150928 225.79263,-41.1401681 C234.571905,-35.6691454 241.590973,-27.5512748 245.60964,-17.8004743 C252.353886,-1.43414229 249.009356,17.477318 237.105585,30.5399093 L236.742246,30.9339464 L224.804825,43.7254128 L195.189187,95.4276103 C194.476165,96.6721619 193.524556,97.7622249 192.390501,98.6366285 L192.076732,98.8697093 L172.971202,112.531491 L186.309826,132.09619 C188.399663,135.161878 188.783688,139.079387 187.328091,142.491025 C185.872494,145.901575 182.779621,148.338459 179.121046,148.950944 C179.030751,148.966174 169.901176,150.494666 160.723733,151.851271 C151.046948,153.280765 145.186483,154.069488 141.22765,154.070576 C136.919604,154.070576 134.867843,153.134987 132.602855,151.072338 C131.815223,150.354328 131.142907,149.525352 130.600049,148.621312 C130.161629,148.166572 129.449061,147.473583 128.354644,146.454225 C127.830416,155.70269 127.805301,164.997051 128.289159,174.29697 L128.39272,176.157015 L156.129572,167.147071 C159.412193,166.081636 162.997409,166.637176 165.797694,168.630298 L166.075065,168.834396 L213.450514,204.854591 L238.004199,209.652207 C247.524327,211.513594 255.797733,217.380611 260.705206,225.747609 C265.61268,234.115696 266.692955,244.199392 263.669708,253.416036 C262.90807,255.739092 262.864078,258.190056 263.539582,260.528426 L263.658829,260.91707 L267.105265,271.522956 C272.811272,289.093392 263.31481,308.017959 245.904651,313.989285 L245.374656,314.166254 L240.678233,315.691483 L230.931824,366.56688 C299.580968,418.096103 391.466361,432.918668 476.343566,400.295969 C481.949464,398.136498 488.243998,400.937827 490.400197,406.545924 C492.556395,412.154021 489.758341,418.447493 484.150267,420.602612 C452.263113,432.857746 418.528721,439 384.733408,439 C353.651293,439 322.521311,433.807478 292.701149,423.402853 C229.792802,401.451313 176.77773,357.542793 143.421925,299.767967 C106.236745,235.360247 96.3587008,160.324883 115.606745,88.4879298 C134.854788,16.6509764 180.926944,-43.3921102 245.334404,-80.5774403 C309.742951,-117.76277 384.776924,-127.641943 456.612499,-108.392733 Z M527.735505,386.800635 C530.698737,391.910893 529.038739,398.432847 524.042301,401.515153 L523.785375,401.668892 L523.366538,401.910405 C521.648759,402.906916 519.768884,403.382326 517.917295,403.382326 C514.166249,403.382326 510.516377,401.439346 508.49834,397.961347 C505.535108,392.851088 507.195107,386.329134 512.191545,383.246829 L512.44847,383.093089 L512.867308,382.851577 C518.067424,379.838108 524.722049,381.607025 527.735505,386.800635 Z M157.437216,189.597955 L130.659883,198.297849 C135.239902,229.363771 145.63143,260.087007 162.263098,288.891196 C175.652016,312.082295 192.091495,332.455786 210.796181,349.762253 L211.818678,350.703199 L220.519625,305.284682 C221.244689,301.497397 223.919317,298.383656 227.537453,297.089804 L227.841127,296.986221 L238.651493,293.473408 C244.890963,291.445707 248.364022,284.790075 246.503625,278.535741 L246.412503,278.242882 L242.966067,267.638084 C240.732628,260.765853 240.743507,253.50198 242.99544,246.6341 C244.089857,243.293176 243.715623,239.784715 241.936922,236.752752 C240.219556,233.82429 237.476877,231.820742 234.183791,231.078951 L233.828876,231.004317 L206.792625,225.7215 C205.284307,225.427266 203.857561,224.816938 202.603943,223.931587 L202.294198,223.704543 L157.437216,189.597955 Z M537.601583,228.798066 C541.927712,229.315034 545.518506,232.361478 546.74479,236.523815 L546.824717,236.809323 L552.058557,256.537206 C552.537809,258.340501 552.543225,260.234772 552.079226,262.038698 L551.972614,262.423805 L539.176848,305.54904 C532.360127,328.521025 524.018184,340.063589 512.921702,341.877109 C512.022017,342.023975 511.049443,342.11427 510.021387,342.111092 C504.75491,342.111092 497.977353,339.751363 491.531603,330.573883 C482.5881,317.842479 488.812946,302.889019 492.298245,294.707073 L492.403003,294.461217 L492.511792,294.207737 C493.381016,292.166847 493.270051,291.041964 492.790292,287.796774 C492.235468,284.054416 491.47612,278.928256 493.510475,272.448755 C496.787201,262.002789 505.365216,257.86335 511.628201,254.841178 C514.247841,253.577045 516.958863,252.268307 518.014117,251.054217 C519.892904,248.89257 521.698802,244.976149 523.444866,241.189187 C524.482713,238.938333 525.556461,236.610238 526.748789,234.412691 C528.875614,230.495182 533.171693,228.280228 537.601583,228.798066 Z M343.057417,71.6549345 C340.276769,71.8877439 337.163227,71.9987092 333.868007,72.1151139 C325.645732,72.4066697 314.383891,72.8059271 309.531901,75.5365429 C307.149421,77.0182555 301.662102,84.8075819 298.715007,88.9905372 C296.246584,92.4968219 293.911971,95.8083735 291.790585,98.2539609 C290.515577,99.7226188 289.24057,101.156464 287.977529,102.578342 C282.194304,109.083953 277.1998,114.705105 273.893701,121.701356 C267.063925,136.159477 268.357427,152.844519 277.268337,165.243255 C285.786518,177.096956 299.430839,182.862799 314.713522,181.072124 C317.102529,180.791447 319.798322,180.12348 322.651858,179.418524 C331.942442,177.12089 345.980578,173.649418 358.019173,184.917832 C366.558024,192.913858 366.501454,201.502787 366.464466,207.187037 C366.450323,209.294289 366.438356,211.114337 366.821294,212.690697 C367.135694,213.983116 369.175488,216.22853 370.975947,218.209587 C373.757682,221.273098 376.913652,224.74457 378.895789,229.495407 C385.405724,245.095817 381.891838,255.810492 378.169078,267.157235 C377.901457,267.969892 377.629484,268.801044 377.354248,269.651777 C375.023987,276.863432 379.813968,287.416011 384.447293,297.620463 C386.549097,302.249455 388.722702,307.036192 390.289264,311.68803 C396.642544,330.54451 400.84724,335.993774 402.008019,337.238326 C403.025196,337.299248 406.010367,336.855387 411.123452,333.609109 C416.624913,330.113703 421.983861,324.991895 424.85698,321.46494 C426.118932,319.915778 426.484463,318.30243 427.129582,315.087701 C427.783405,311.820753 428.599322,307.754203 431.066658,303.530995 C433.126034,300.006216 435.359473,297.491004 437.152316,295.471871 C439.394458,292.947955 440.629214,291.557626 441.582206,288.556124 C444.863283,278.221124 448.826467,274.002268 453.843818,268.660705 C454.541155,267.918761 455.285272,267.126774 456.083784,266.257546 C461.942073,259.884658 461.772362,258.613997 458.129018,246.856031 C450.410436,221.955208 467.170474,206.346094 480.637469,193.804844 C485.923528,188.88212 490.926736,184.223755 494.440621,179.321701 C493.607297,179.184626 492.787028,179.058431 492.071196,178.948553 C486.150897,178.040161 479.441877,177.012101 473.968701,173.434015 C461.898558,165.544602 456.208891,152.853222 451.189365,141.656609 C450.445248,139.998658 449.713098,138.361376 448.968981,136.771962 C447.235972,133.06768 445.691167,129.072931 444.056068,124.839933 C440.819594,116.464231 437.152316,106.970174 432.44719,101.982176 C429.798177,99.1754077 417.808538,95.9291298 411.367139,94.1852345 C409.493792,93.6771877 407.666136,93.1821956 405.9266,92.6850277 C405.156373,94.1417188 404.120702,95.3492819 403.015405,96.2500588 C402.858749,96.3947488 402.710796,96.5535814 402.55414,96.712414 C400.591586,98.7108767 396.010479,103.402967 387.777325,102.86881 C378.898006,102.303314 369.456743,96.1131228 361.076158,90.528064 L359.687966,89.6027989 C357.017389,87.8244989 354.53292,86.1920367 352.696125,85.209015 C349.684845,83.5978429 347.603711,80.6659666 347.080436,77.2902292 C346.782354,75.3711829 347.005371,73.436906 347.69183,71.6745166 C346.154641,71.5548481 344.524981,71.5320024 343.057417,71.6549345 Z M518.320902,299.360007 L526.552968,271.614339 C524.661127,272.708762 522.786692,273.612802 521.084144,274.43525 C517.243891,276.289023 514.694964,277.605376 514.268511,278.96198 C513.749587,280.612317 513.89754,281.813353 514.312026,284.608154 C514.943705,288.881858 515.806938,294.701344 512.729697,302.248405 L512.527886,302.732481 L512.418009,302.987048 C510.361896,307.814037 507.254882,315.107283 509.33384,318.068533 C509.571,318.406868 509.79293,318.702775 509.997453,318.96387 C511.743638,316.578514 514.748909,311.245094 518.155745,299.913027 L518.320902,299.360007 L526.552968,271.614339 Z M207.866373,-25.6496348 C166.426454,13.6723206 140.07775,65.1863123 131.242992,119.867166 C136.599764,124.554904 140.193066,127.763106 142.778982,130.165177 C143.469792,130.807035 144.137757,131.428223 144.776348,132.040708 C147.975713,131.691856 152.727618,131.045408 158.047028,130.257765 L158.663268,130.166265 L149.00389,115.997524 C145.730203,111.194956 146.814821,104.689197 151.419284,101.201242 L151.66487,101.020477 L177.492474,82.5523761 L206.552201,31.8173169 C206.899419,31.2117222 207.304054,30.6408797 207.75981,30.1129737 L208.039347,29.801448 L220.836201,16.0907106 C227.243875,9.22283108 229.073707,-0.827140539 225.494548,-9.51071636 C222.313556,-17.2315053 215.801445,-23.1507406 207.866373,-25.6496348 Z M385.163125,17.7138495 C387.151788,12.04483 393.363642,9.06508634 399.028287,11.0494063 L399.028287,11.0494063 L399.762613,11.3061495 C405.43161,13.2937332 408.415693,19.5012606 406.427029,25.171368 C404.856116,29.6480548 400.652507,32.4515596 396.161696,32.4515596 C394.966105,32.4515596 393.752019,32.2535627 392.560779,31.8358112 L392.560779,31.8358112 L391.827541,31.579068 C386.158544,29.5903964 383.174461,23.3839569 385.163125,17.7138495 Z" id="Combined-Shape"></path>
                </g>
            </g>
        </g>
    </g>
</svg>