<?xml version="1.0" encoding="UTF-8"?>
<svg width="70px" height="70px" viewBox="0 0 70 70" version="1.1" xmlns="http://www.w3.org/2000/svg" xmlns:xlink="http://www.w3.org/1999/xlink">
    <!-- Generator: sketchtool 57.1 (101010) - https://sketch.com -->
    <title>07BE447A-56FF-4DAC-9D8F-C93C46FA8D7E</title>
    <desc>Created with sketchtool.</desc>
    <g id="Page-1" stroke="none" stroke-width="1" fill="none" fill-rule="evenodd">
        <g id="Platform" transform="translate(-548.000000, -1281.000000)" fill="#D6E4EF" fill-rule="nonzero">
            <g id="Group-7" transform="translate(221.000000, 1227.000000)">
                <g id="hired-(1)" transform="translate(327.000000, 54.000000)">
                    <path d="M41.7042773,33.372093 C42.4148288,33.372093 42.9989443,33.9181773 43.0652051,34.6164655 L43.0714648,34.749082 L43.0714648,45.994951 C43.0714648,48.0742044 42.2914844,49.9727968 41.0119336,51.411888 C41.0260156,51.4153305 41.0402344,51.4182222 41.0541797,51.4222154 C44.6304687,51.7543452 47.7425977,53.723164 49.642168,56.5779376 C50.4808008,56.1364749 51.38,55.8349143 52.3146094,55.6822062 C51.6187793,54.712747 51.1867759,53.5393093 51.1286113,52.2687249 L51.121875,51.9738372 L51.121875,47.4818237 C51.121875,44.7099096 53.30351,42.4415595 56.0282441,42.3270563 L56.2444531,42.3225214 L62.3546875,42.3225214 C63.065239,42.3225214 63.6493545,42.8686057 63.7156153,43.5668939 L63.721875,43.6995104 L63.721875,51.9738372 C63.721875,53.3583996 63.2779492,54.6399633 62.5276367,55.6842717 C66.6731278,56.3666737 69.8673215,59.9375662 69.9959702,64.2718158 L70,64.5436812 L70,68.623011 C70,69.3387861 69.4576817,69.9269748 68.7644637,69.9936967 L68.6328125,70 L1.3671875,70 C0.656636029,70 0.072520545,69.4539157 0.00625973183,68.7556275 L0,68.623011 L0,64.5436812 C0,60.0876071 3.24050781,56.3808905 7.47236328,55.6842717 C6.77564453,54.7145567 6.34310617,53.5403884 6.28486966,52.2689292 L6.278125,51.9738372 L6.278125,47.4818237 C6.278125,44.7099096 8.45976003,42.4415595 11.1844941,42.3270563 L11.4007031,42.3225214 L17.5109375,42.3225214 C18.221489,42.3225214 18.8056045,42.8686057 18.8718653,43.5668939 L18.878125,43.6995104 L18.878125,51.9738372 C18.878125,53.3577111 18.4344727,54.6385863 17.6849805,55.6826193 C18.6191797,55.8353274 19.5185156,56.1371634 20.3574219,56.5784884 C22.2568555,53.7233017 25.3691211,51.7542075 28.9458203,51.4220777 C28.9597656,51.4182222 28.9739844,51.4151928 28.9880664,51.4117503 C27.7758604,50.0484008 27.0120222,48.2726457 26.9349761,46.3215745 L26.9285352,45.9948133 L26.9285352,39.8896573 C26.9285352,36.3739799 29.7066411,33.4995297 33.1679631,33.3762151 L33.399707,33.372093 L41.7042773,33.372093 Z M17.2450195,58.4009333 L13.5448633,62.127754 C13.2883789,62.3859394 12.9407031,62.5310741 12.578125,62.5310741 C12.2673438,62.5310741 11.9675112,62.4244445 11.7266693,62.2313899 L11.6113867,62.127754 L7.91232422,58.4021726 C5.05688117,58.873313 2.85302633,61.3214564 2.73901142,64.3009636 L2.734375,64.5436812 L2.734375,67.246022 L18.3957813,67.246022 L18.3957813,63.0787026 C18.3957813,61.6564106 18.6495313,60.2927785 19.1127344,59.0306304 C18.5270313,58.720257 17.8985352,58.508063 17.2450195,58.4009333 Z M41.1683398,54.2066248 L35.9667383,59.4455171 C35.6997266,59.7144431 35.3498633,59.8488372 35,59.8488372 C34.7001172,59.8488372 34.4002344,59.7500987 34.1525263,59.5525349 L34.0332617,59.4455171 L28.8316602,54.2066248 C25.0153147,54.7232367 21.9580011,57.6854268 21.2740788,61.4725315 L21.2302344,61.7380661 L30.0325977,61.7380661 C30.7875586,61.7380661 31.3997852,62.3545441 31.3997852,63.1150551 C31.3997852,63.8308302 30.8574668,64.4190189 30.1642488,64.4857408 L30.0325977,64.4920441 L21.130293,64.4920441 L21.130293,67.246022 L48.869707,67.246022 L48.869707,63.0787026 C48.869707,58.5475826 45.5099805,54.7943237 41.1683398,54.2066248 Z M52.7544336,58.4006579 C52.1007813,58.5076499 51.4724219,58.7197062 50.8869922,59.030355 C51.303998,60.1664122 51.5512361,61.38456 51.5965137,62.6537802 L51.604082,63.0787026 L51.604082,67.246022 L67.2654883,67.246022 L67.2654883,64.5436812 C67.2654883,61.5365075 65.1367767,59.021757 62.3176052,58.4446873 L62.0875391,58.4021726 L58.3884766,62.127754 C58.1319922,62.3859394 57.7843164,62.5310741 57.4217383,62.5310741 C57.110957,62.5310741 56.8111244,62.4244445 56.5702826,62.2313899 L56.455,62.127754 L52.7544336,58.4006579 Z M35.4069767,61.8604651 C35.7280814,61.8604651 36.0430814,61.9911047 36.2700523,62.2181977 C36.4972674,62.4452907 36.627907,62.7602907 36.627907,63.0813953 C36.627907,63.4025 36.4971453,63.7175 36.2700523,63.944593 C36.0430814,64.171686 35.7280814,64.3023256 35.4069767,64.3023256 C35.0858721,64.3023256 34.7709942,64.171686 34.5437791,63.944593 C34.316564,63.7175 34.1860465,63.4025 34.1860465,63.0813953 C34.1860465,62.7602907 34.316686,62.4452907 34.5437791,62.2181977 C34.7708721,61.9911047 35.0858721,61.8604651 35.4069767,61.8604651 Z M13.4595508,58.3190024 L11.6966992,58.3190024 L12.578125,59.2067472 L13.4595508,58.3190024 Z M58.3033008,58.3190024 L56.5404492,58.3190024 L57.421875,59.2067472 L58.3033008,58.3190024 Z M37.3832813,54.1241432 L32.6167188,54.1241432 L35,56.5245104 L37.3832813,54.1241432 Z M16.14375,50.7275245 C15.7596842,50.8732558 15.3493191,50.9643857 14.9217534,50.9907142 L14.6632227,50.9986536 L9.0125,50.9986536 L9.0125,51.9738372 C9.0125,53.9539474 10.6119727,55.5650245 12.578125,55.5650245 C14.4808531,55.5650245 16.0401767,54.0562114 16.1387982,52.1642671 L16.14375,51.9738372 L16.14375,50.7275245 Z M60.9875,50.7275245 C60.6034342,50.8732558 60.1930691,50.9643857 59.7655034,50.9907142 L59.5069727,50.9986536 L53.85625,50.9986536 L53.85625,51.9738372 C53.85625,53.9539474 55.4557227,55.5650245 57.421875,55.5650245 C59.3246031,55.5650245 60.8839267,54.0562114 60.9825482,52.1642671 L60.9875,51.9738372 L60.9875,50.7275245 Z M40.3372266,43.5323439 C39.6757509,43.8963586 38.9281795,44.1210016 38.1338814,44.1664283 L37.8339062,44.1749847 L29.6630469,44.1749847 L29.6630469,45.994951 C29.6630469,48.9589198 32.0572656,51.3703029 35.0001367,51.3703029 C37.869436,51.3703029 40.2171727,49.0779819 40.3327662,46.2161836 L40.3372266,45.994951 L40.3372266,43.5323439 Z M16.14375,45.0764994 L11.4007031,45.0764994 C10.1386979,45.0764994 9.10220364,46.0674639 9.0180201,47.3173825 L9.0125,47.4818237 L9.0125,48.2448133 L14.6632227,48.2448133 C15.4315499,48.2448133 16.0650847,47.6522564 16.1369596,46.8969554 L16.14375,46.7535343 L16.14375,45.0764994 Z M60.9875,45.0764994 L56.2444531,45.0764994 C54.9824479,45.0764994 53.9459536,46.0674639 53.8617701,47.3173825 L53.85625,47.4818237 L53.85625,48.2448133 L59.5069727,48.2448133 C60.2752999,48.2448133 60.9088347,47.6522564 60.9807096,46.8969554 L60.9875,46.7535343 L60.9875,45.0764994 Z M40.3370898,36.126071 L33.399707,36.126071 C31.4056861,36.126071 29.7714589,37.7072298 29.6680998,39.6900773 L29.6629102,39.8896573 L29.6627734,41.4211444 L37.8337695,41.4211444 C39.1588695,41.4211444 40.2468375,40.3787607 40.3317548,39.0654029 L40.3370898,38.8998776 L40.3370898,36.126071 Z M40.6307458,1.74513493 C45.6159613,3.92210142 48.8372093,8.781575 48.8372093,14.1251485 C48.8372093,21.5961998 42.6297897,27.6744186 34.9999311,27.6744186 C27.3700726,27.6744186 21.1627907,21.5961998 21.1627907,14.1250137 C21.1627907,8.80908374 24.3607651,3.95985852 29.3098998,1.77102551 C30.0024592,1.46451877 30.8186849,1.76617103 31.1317069,2.44498974 C31.4448665,3.12367361 31.1366645,3.92250596 30.4435543,4.2290127 C26.4787932,5.98242544 23.9169157,9.86695677 23.9169157,14.1251485 C23.9169157,20.1091094 28.888773,24.9774829 34.9999311,24.9774829 C41.1110893,24.9774829 46.0829466,20.1091094 46.0829466,14.1251485 C46.0829466,9.8448419 43.5024779,5.95221976 39.5089346,4.2082463 C38.8143096,3.90497588 38.5022516,3.10762684 38.8121062,2.42745966 C39.1219607,1.74729248 39.9362585,1.44186451 40.6307458,1.74513493 Z M41.9146703,8.54654236 C42.4283092,9.05530171 42.4604116,9.86049806 42.0109776,10.406312 L41.9146703,10.5118517 L34.0378052,18.313888 C33.7745976,18.5744562 33.4178083,18.7209302 33.0457259,18.7209302 C32.7201539,18.7209302 32.4062905,18.608786 32.1565833,18.4061897 L32.0536467,18.313888 L28.0853297,14.3832693 C27.5374483,13.8404537 27.5374483,12.9604976 28.0853297,12.417821 C28.5968166,11.9113228 29.4045626,11.8775563 29.9555508,12.3166343 L30.0694882,12.41796 L33.0457259,15.365924 L39.9303715,8.54654236 C40.4785335,8.00386572 41.3666486,8.00386572 41.9146703,8.54654236 Z M35.3882753,0 L35.4313151,0 C36.095306,0.0031744186 36.6310192,0.552348837 36.627907,1.2266686 C36.6249638,1.85701199 36.1522476,2.37350125 35.5482372,2.43560013 L35.4257848,2.44186047 L35.3882753,2.44186047 C34.7244046,2.44186047 34.1860465,1.89525 34.1860465,1.22093023 C34.1860465,0.588755451 34.6592128,0.0688251726 35.2653712,0.0063033206 L35.3882753,0 L35.4313151,0 Z" id="Combined-Shape"></path>
                </g>
            </g>
        </g>
    </g>
</svg>