<?xml version="1.0" encoding="UTF-8"?>
<svg width="167px" height="181px" viewBox="0 0 167 181" version="1.1" xmlns="http://www.w3.org/2000/svg" xmlns:xlink="http://www.w3.org/1999/xlink">
    <!-- Generator: sketchtool 57.1 (101010) - https://sketch.com -->
    <title>64A12F49-F7E5-4AAB-B0B5-129F0033C96E</title>
    <desc>Created with sketchtool.</desc>
    <g id="Page-1" stroke="none" stroke-width="1" fill="none" fill-rule="evenodd">
        <g id="Landing-page-3-b" transform="translate(-288.000000, -1924.000000)" fill="#90328D" fill-rule="nonzero">
            <g id="Group-9" transform="translate(221.000000, 1924.000000)">
                <g id="human-resources">
                    <g transform="translate(67.000000, -87.000000)" id="Combined-Shape">
                        <path d="M138.322581,0 C161.918943,0 181.160121,19.0052139 181.542585,42.5121132 L181.548387,43.2258065 L246.387097,43.2258065 C258.185278,43.2258065 267.805867,52.7284134 267.997099,64.481863 L268,64.8387097 L268,194.516129 C268,206.31431 258.497393,215.934899 246.743943,216.126131 L246.387097,216.129032 L171.252,216.129032 L179.897161,233.419355 L185.870968,233.419355 C197.669149,233.419355 207.289738,242.921962 207.48097,254.675411 L207.483871,255.032258 L207.483871,268 L60.516129,268 L60.516129,255.032258 C60.516129,243.234077 70.018736,233.613488 81.7721856,233.422256 L82.1290323,233.419355 L88.1028387,233.419355 L96.748,216.129032 L21.6129032,216.129032 C9.81472194,216.129032 0.194133148,206.626425 0.00290119077,194.872976 L0,194.516129 L0,64.8387097 C0,53.0405284 9.50260697,43.4199396 21.2560566,43.2287076 L21.6129032,43.2258065 L95.0967742,43.2258065 C95.0967742,19.3910968 114.487871,0 138.322581,0 Z M185.870968,242.064516 L82.1290323,242.064516 C75.0831005,242.064516 69.3302133,247.715288 69.1649428,254.722261 L69.1612903,255.032258 L69.1612903,259.354839 L198.83871,259.354839 L198.83871,255.032258 C198.83871,247.88271 193.020516,242.064516 185.870968,242.064516 Z M161.58671,216.129032 L106.41329,216.129032 L97.768129,233.419355 L170.231871,233.419355 L161.58671,216.129032 Z M95.9699355,51.8709677 L21.6129032,51.8709677 C14.5669715,51.8709677 8.81408422,57.5217401 8.64881379,64.5287123 L8.64516129,64.8387097 L8.64516129,194.516129 C8.64516129,201.562061 14.2959336,207.314948 21.3029059,207.480218 L21.6129032,207.483871 L246.387097,207.483871 C253.433029,207.483871 259.185916,201.833099 259.351186,194.826126 L259.354839,194.516129 L259.354839,64.8387097 C259.354839,57.7927779 253.704066,52.0398907 246.697094,51.8746202 L246.387097,51.8709677 L180.675226,51.8709677 C180.11257,54.6287742 179.273869,57.2848799 178.209066,59.825967 L177.913097,60.516129 L242.064516,60.516129 C246.745635,60.516129 250.568388,64.2537709 250.70585,68.9021292 L250.709677,69.1612903 L250.709677,181.548387 C250.709677,186.229506 246.972036,190.052259 242.323677,190.189721 L242.064516,190.193548 L88.2411613,190.193548 C86.0708328,190.193548 83.9398899,189.350699 82.3521088,187.875533 L82.1290323,187.660516 L76.0169032,181.548387 L25.9354839,181.548387 C21.2543648,181.548387 17.4316117,177.810745 17.2941499,173.162387 L17.2903226,172.903226 L17.2903226,69.1612903 C17.2903226,64.4801713 21.0279645,60.6574181 25.6763227,60.5199564 L25.9354839,60.516129 L98.7320645,60.516129 C97.5260645,57.7669677 96.5837419,54.8794839 95.9699355,51.8709677 Z M35,190 L35,199 L26,199 L26,190 L35,190 Z M52,190 L52,199 L43,199 L43,190 L52,190 Z M69,190 L69,199 L60,199 L60,190 L69,190 Z M97.6298065,69.1612903 L25.9354839,69.1612903 L25.9354839,172.903226 L76.0169032,172.903226 C78.1872317,172.903226 80.3181746,173.746075 81.9059558,175.221241 L82.1290323,175.436258 L88.2411613,181.548387 L242.064516,181.548387 L242.064516,69.1612903 L172.821097,69.1612903 C164.923742,79.6349032 152.418516,86.4516129 138.322581,86.4516129 C125.957433,86.4516129 114.823722,81.1991645 106.937645,72.8506539 L106.564581,72.4507742 L94.8114839,84.203871 C100.270903,88.9630323 103.741935,95.9483226 103.741935,103.741935 C103.741935,111.50529 100.296839,118.464645 94.8763226,123.219484 C102.746109,125.958271 109.483563,131.127027 114.143145,137.861029 L114.457613,138.322581 L147.840903,138.322581 C147.270323,135.530194 146.967742,132.638387 146.967742,129.677419 C146.967742,105.84271 166.358839,86.4516129 190.193548,86.4516129 C214.028258,86.4516129 233.419355,105.84271 233.419355,129.677419 C233.419355,153.512129 214.028258,172.903226 190.193548,172.903226 C172.686708,172.903226 157.594707,162.42621 150.806197,147.423741 L150.603032,146.967742 L118.762903,146.967742 C120.130659,150.817114 120.943639,154.926415 121.025427,159.218464 L121.032258,159.935484 L121.032258,164.258065 L34.5806452,164.258065 L34.5806452,159.935484 C34.5806452,142.952065 45.5340645,128.514645 60.7365806,123.219484 C55.3160645,118.464645 51.8709677,111.50529 51.8709677,103.741935 C51.8709677,89.4385161 63.5030323,77.8064516 77.8064516,77.8064516 C80.9268463,77.8064516 83.909397,78.3808014 86.6820285,79.3961618 L87.1994194,79.5916774 L97.6298065,69.1612903 Z M190.193548,146.967742 C181.993613,146.967742 174.342645,150.853742 169.479742,157.303032 C175.259032,161.647226 182.417226,164.258065 190.193548,164.258065 C197.969871,164.258065 205.128065,161.647226 210.907355,157.303032 C206.044452,150.853742 198.393484,146.967742 190.193548,146.967742 Z M82.1290323,129.677419 L73.483871,129.677419 C58.4162626,129.677419 45.8863544,140.743317 43.5988839,155.17457 L43.5327097,155.612903 L112.080194,155.612903 C109.975097,140.968 97.3488387,129.677419 82.1290323,129.677419 Z M190.193548,95.0967742 C171.126645,95.0967742 155.612903,110.610516 155.612903,129.677419 C155.612903,137.860065 158.483097,145.381355 163.255226,151.307613 C166.67871,147.045548 171.018581,143.691226 175.92471,141.460774 C171.455161,137.496968 168.580645,131.782516 168.580645,125.354839 C168.580645,113.437484 178.276194,103.741935 190.193548,103.741935 C202.110903,103.741935 211.806452,113.437484 211.806452,125.354839 C211.806452,131.782516 208.931935,137.496968 204.462387,141.460774 C209.368516,143.691226 213.708387,147.049871 217.131871,151.307613 C221.904,145.381355 224.774194,137.860065 224.774194,129.677419 C224.774194,110.610516 209.260452,95.0967742 190.193548,95.0967742 Z M190.193548,112.387097 C183.044,112.387097 177.225806,118.20529 177.225806,125.354839 C177.225806,132.504387 183.044,138.322581 190.193548,138.322581 C197.343097,138.322581 203.16129,132.504387 203.16129,125.354839 C203.16129,118.20529 197.343097,112.387097 190.193548,112.387097 Z M77.8064516,86.4516129 C68.2708387,86.4516129 60.516129,94.2063226 60.516129,103.741935 C60.516129,113.277548 68.2708387,121.032258 77.8064516,121.032258 C87.3420645,121.032258 95.0967742,113.277548 95.0967742,103.741935 C95.0967742,94.2063226 87.3420645,86.4516129 77.8064516,86.4516129 Z M43,112 L43,121 L34,121 L34,112 L43,112 Z M43,95 L43,104 L34,104 L34,95 L43,95 Z M43,78 L43,87 L34,87 L34,78 L43,78 Z M138.322581,60.516129 C130.122645,60.516129 122.471677,64.402129 117.608774,70.8470968 C123.388065,75.1956129 130.546258,77.8064516 138.322581,77.8064516 C146.098903,77.8064516 153.257097,75.1956129 159.036387,70.8514194 C154.173484,64.402129 146.522516,60.516129 138.322581,60.516129 Z M138.322581,8.64516129 C119.255677,8.64516129 103.741935,24.1589032 103.741935,43.2258065 C103.741935,51.4084516 106.612129,58.9297419 111.384258,64.856 C114.807742,60.5982581 119.147613,57.2396129 124.053742,55.0091613 C119.584194,51.0453548 116.709677,45.3309032 116.709677,38.9032258 C116.709677,26.985871 126.405226,17.2903226 138.322581,17.2903226 C150.239935,17.2903226 159.935484,26.985871 159.935484,38.9032258 C159.935484,45.3309032 157.060968,51.0453548 152.591419,55.0134839 C157.497548,57.2396129 161.837419,60.5982581 165.260903,64.8603226 C170.02871,58.9297419 172.903226,51.4084516 172.903226,43.2258065 C172.903226,24.1589032 157.389484,8.64516129 138.322581,8.64516129 Z M138.322581,25.9354839 C131.173032,25.9354839 125.354839,31.7536774 125.354839,38.9032258 C125.354839,46.0527742 131.173032,51.8709677 138.322581,51.8709677 C145.472129,51.8709677 151.290323,46.0527742 151.290323,38.9032258 C151.290323,31.7536774 145.472129,25.9354839 138.322581,25.9354839 Z"></path>
                    </g>
                </g>
            </g>
        </g>
    </g>
</svg>