<?xml version="1.0" encoding="UTF-8"?>
<svg width="20px" height="20px" viewBox="0 0 20 20" version="1.1" xmlns="http://www.w3.org/2000/svg" xmlns:xlink="http://www.w3.org/1999/xlink">
    <!-- Generator: sketchtool 57.1 (101010) - https://sketch.com -->
    <title>F09C51A8-CCB5-4AD7-8ECB-ED6666B6BCF5</title>
    <desc>Created with sketchtool.</desc>
    <g id="Page-1" stroke="none" stroke-width="1" fill="none" fill-rule="evenodd">
        <g id="Services---GEO" transform="translate(-220.000000, -2088.000000)" fill="#4C5258" fill-rule="nonzero">
            <g id="Group-18" transform="translate(0.000000, 1863.000000)">
                <g id="Group-15" transform="translate(219.000000, 225.000000)">
                    <g id="Group-21" transform="translate(1.000000, 0.000000)">
                        <path d="M18,0 L2,0 C0.9,0 0,0.9 0,2 L0,18 C0,19.1 0.9,20 2,20 L18,20 C19.1,20 20,19.1 20,18 L20,2 C20,0.9 19.1,0 18,0 Z M6,17 L3,17 L3,8 L6,8 L6,17 Z M4.5,6.3 C3.5,6.3 2.7,5.5 2.7,4.5 C2.7,3.5 3.5,2.7 4.5,2.7 C5.5,2.7 6.3,3.5 6.3,4.5 C6.3,5.5 5.5,6.3 4.5,6.3 Z M17,17 L14,17 L14,11.7 C14,10.9000392 13.3,10.2 12.5,10.2 C11.7,10.2 11,10.9000392 11,11.7 L11,17 L8,17 L8,8 L11,8 L11,9.2 C11.5,8.4 12.6,7.8 13.5,7.8 C15.4,7.8 17,9.4 17,11.3 L17,17 Z" id="Shape"></path>
                    </g>
                </g>
            </g>
        </g>
    </g>
</svg>