<?xml version="1.0" encoding="UTF-8"?>
<svg width="170px" height="159px" viewBox="0 0 170 159" version="1.1" xmlns="http://www.w3.org/2000/svg" xmlns:xlink="http://www.w3.org/1999/xlink">
    <!-- Generator: sketchtool 57.1 (101010) - https://sketch.com -->
    <title>3904AA5E-79B2-4B71-8739-0C4A08AAF15E</title>
    <desc>Created with sketchtool.</desc>
    <g id="Page-1" stroke="none" stroke-width="1" fill="none" fill-rule="evenodd">
        <g id="Landing-page-3-b" transform="translate(-830.000000, -1924.000000)" fill="#90328D" fill-rule="nonzero">
            <g id="Group-12" transform="translate(766.000000, 1924.000000)">
                <g id="smartphone">
                    <g transform="translate(64.000000, -158.000000)" id="Shape">
                        <path d="M97.5203176,269 L84.4846043,269 C76.4993994,269 70,275.6025 70,283.714375 L70,286.290625 C70,294.4025 76.4993994,301 84.4796824,301 L97.5153957,301 C105.500601,301 112,294.4025 112,286.290625 L112,283.714375 C112,275.6025 105.500601,269 97.5203176,269 Z M101.500308,286.290625 C101.500308,288.52 99.7154953,290.333125 97.5209328,290.333125 L84.4846043,290.333125 C82.28512,290.333125 80.4996924,288.52 80.4996924,286.290625 L80.4996924,283.714375 C80.4996924,281.48 82.2845047,279.66625 84.4846043,279.66625 L97.5153957,279.66625 C99.7154953,279.66625 101.500308,281.479375 101.500308,283.714375 L101.500308,286.290625 L101.500308,286.290625 Z"></path>
                        <path d="M160.867326,0 L19.1382573,0 C8.58702733,0 0,8.56952539 0,19.09925 L0,297.90075 C0,308.430475 8.58702733,317 19.1382573,317 L160.861743,317 C171.412973,317 180,308.430475 180,297.906322 L180,19.09925 C180,8.56952539 171.413593,0 160.867326,0 Z M169.412166,297.90075 C169.412166,302.603123 165.579303,306.433127 160.867326,306.433127 L19.1382573,306.433127 C14.4213171,306.433127 10.5884543,302.602504 10.5884543,297.905703 L10.5884543,19.09925 C10.5884543,14.396877 14.4213171,10.566873 19.1382573,10.566873 L160.861743,10.566873 C165.578683,10.566873 169.412166,14.3974961 169.412166,19.09925 L169.412166,297.90075 L169.412166,297.90075 Z"></path>
                        <path d="M175.705463,32 L6.29391693,32 C3.37180879,32 1,34.3622272 1,37.2725307 L1,258.727469 C1,261.637773 3.37180879,264 6.29391693,264 L175.706083,264 C178.628191,264 181,261.637773 181,258.727469 L181,37.2725307 C181,34.3622272 178.628191,32 175.705463,32 Z M170.411546,253.454939 L11.5878339,253.454939 L11.5878339,42.5456792 L170.411546,42.5456792 L170.411546,253.454939 Z"></path>
                    </g>
                </g>
            </g>
        </g>
    </g>
</svg>