<?xml version="1.0" encoding="UTF-8"?>
<svg width="447px" height="390px" viewBox="0 0 447 390" version="1.1" xmlns="http://www.w3.org/2000/svg" xmlns:xlink="http://www.w3.org/1999/xlink">
    <!-- Generator: sketchtool 57.1 (101010) - https://sketch.com -->
    <title>CE634390-D396-4A96-BBA5-60869651923B</title>
    <desc>Created with sketchtool.</desc>
    <g id="Page-1" stroke="none" stroke-width="1" fill="none" fill-rule="evenodd" fill-opacity="0.399475524">
        <g id="Services---GEO" transform="translate(-993.000000, -384.000000)" fill="#E0EDF7" fill-rule="nonzero">
            <g id="Combined-Shape" transform="translate(220.000000, 384.000000)">
                <path d="M1123.6125,-157.392733 C1195.45025,-138.143523 1255.492,-92.0722691 1292.67827,-27.663461 C1326.39308,30.7325529 1337.77785,99.28624 1324.7384,165.363879 C1311.8197,230.810538 1275.95196,289.420868 1223.74193,330.398599 C1219.01395,334.109408 1212.17765,333.284783 1208.46903,328.557881 C1204.75824,323.830978 1205.58286,316.99356 1210.30974,313.284927 C1282.62617,256.525106 1316.83923,166.264656 1305.95162,79.0100578 C1304.53097,85.0689176 1301.60645,90.5529748 1297.37191,94.9439627 L1296.95803,95.3654674 L1289.91829,102.405234 C1287.85783,104.467883 1285.08045,105.591678 1282.22691,105.591678 C1281.44254,105.591678 1280.65382,105.506822 1279.87054,105.333847 C1276.35019,104.552482 1273.45089,102.078079 1272.12159,98.7382267 L1272.00509,98.4322426 L1257.21522,57.7634735 C1257.0194,57.2254319 1256.74605,56.728153 1256.39997,56.2784877 L1256.22089,56.0576546 L1242.81917,40.3669487 C1241.82254,39.1997586 1240.39604,38.5032004 1238.87234,38.4294075 L1238.60251,38.4228808 L1233.40783,38.4228808 L1233.98659,39.2921087 C1236.86406,43.6077872 1236.294,49.3507835 1232.62781,53.0180767 C1218.51961,67.1241993 1201.22274,78.2813427 1182.54893,85.3278414 L1181.58182,85.6886436 L1173.38457,88.7108152 C1168.3495,90.5736075 1162.71877,88.4702369 1160.11974,83.8009968 L1159.9785,83.5389636 L1131.82716,29.615285 C1131.07356,28.1717264 1130.6539,26.5790207 1130.5978,24.9556281 L1130.59132,24.5805082 L1130.59132,16.9565418 L1115.40219,2.4581686 L1099.38409,-3.17168669 C1093.71618,-5.16362196 1090.73645,-11.3722372 1092.72838,-17.0412567 C1094.68658,-22.6152014 1100.72433,-25.5936356 1106.31857,-23.7911169 L1106.59789,-23.6969968 L1124.8255,-17.2914725 C1126.16079,-16.821774 1127.39096,-16.0970321 1128.44729,-15.1583067 L1128.73102,-14.8970162 L1148.97993,4.43378545 C1151.04796,6.40559466 1152.25201,9.11165237 1152.34156,11.9591051 L1152.34695,12.3014402 L1152.34695,21.9108145 L1174.83364,64.9838309 C1187.56992,60.1843577 1199.5503,53.1244451 1209.97066,44.3182941 L1210.74925,43.6545666 L1209.08913,41.1621998 C1205.85918,36.3188924 1205.55893,30.1200682 1208.30585,24.9873808 C1210.99671,19.9605078 1216.15858,16.7970748 1221.84231,16.6700488 L1222.19821,16.6660739 L1238.60251,16.6660739 C1246.4458,16.6660739 1253.87365,20.0199621 1259.05817,25.8871734 L1259.36054,26.2351961 L1272.76226,41.9259019 C1274.75922,44.2624958 1276.33356,46.8935863 1277.44494,49.7537362 L1277.66103,50.3288009 L1285.174,70.9900978 C1285.17727,70.9030662 1285.17944,70.8160346 1285.18053,70.7279152 C1285.31279,62.8236133 1288.70536,55.264376 1294.51047,49.909821 L1294.86167,49.5912082 L1299.47324,45.4789661 C1293.82382,24.055055 1285.32631,3.10872965 1273.83928,-16.7877773 C1231.14439,-90.7378357 1156.95486,-135.413054 1077.89663,-143.678745 L1075.49946,-143.918069 L1044.20847,-104.667914 C1043.01213,-103.16764 1041.44194,-102.012538 1039.66013,-101.316451 L1039.301,-101.183388 L968.911229,-76.5055833 L952.947526,-37.8102552 L969.17341,-15.0808704 C977.977604,-29.2909973 993.613399,-38.3736739 1010.73649,-38.5633136 L1011.28347,-38.5663421 L1017.46813,-38.5663421 C1023.47437,-38.5663421 1028.34594,-33.6947494 1028.34594,-27.6884826 C1028.34594,-21.779091 1023.63025,-16.9680664 1017.75785,-16.8144093 L1017.46813,-16.8106231 L1011.28347,-16.8106231 C999.743436,-16.8106231 989.357216,-9.59872744 985.307334,1.17859296 L985.165398,1.56500702 L984.897777,2.31130281 C990.094629,1.72819123 995.346964,1.53889754 1000.09887,1.37027386 C1003.12429,1.26366017 1005.98436,1.16248596 1008.24499,0.973192276 C1012.22449,0.634857012 1032.39725,-0.371445623 1038.4742,12.4831186 C1039.51858,14.6921384 1040.51692,18.1890656 1039.54086,22.5433889 L1039.44351,22.9541055 L1040.06779,23.3705594 C1043.45948,25.630156 1048.65951,29.0672907 1052.48296,30.9022645 C1053.66224,28.0258708 1055.67592,26.2362839 1056.35585,25.6912487 C1058.9298,23.6286003 1062.39582,22.1936671 1067.95168,20.8914571 C1070.0252,20.4040802 1072.1988,20.5378913 1074.20161,21.2776597 C1076.5917,22.1599424 1080.21547,23.1412234 1084.05463,24.1801629 C1095.46986,27.2719597 1108.40814,30.7749808 1115.27164,38.0475571 C1122.90755,46.141494 1127.39292,57.7525946 1131.35066,67.9962115 C1132.84651,71.866941 1134.25968,75.5233552 1135.67394,78.5455268 C1136.46701,80.2393789 1137.2492,81.984362 1138.04228,83.752191 C1142.02504,92.6348516 1146.14271,101.818859 1152.87348,106.219393 C1154.3998,107.216993 1159.19522,107.95241 1162.36859,108.439786 C1170.40375,109.671283 1180.40473,111.205215 1184.33963,120.332652 C1188.35394,129.641767 1181.86685,139.033562 1179.73459,142.121008 C1174.86192,149.174917 1168.55869,155.045197 1162.46215,160.72292 C1148.3979,173.820084 1142.58095,180.682525 1145.90664,191.41243 C1149.85894,204.164732 1153.5904,216.208815 1139.10079,231.975674 C1138.24462,232.906912 1137.4472,233.757645 1136.69873,234.552896 C1132.40048,239.130757 1131.10262,240.510208 1129.31631,246.136799 C1126.96538,253.544275 1123.33509,257.630407 1120.41845,260.914762 C1118.96829,262.54878 1117.82275,263.839023 1116.85017,265.503502 C1116.21484,266.591396 1115.88195,268.255875 1115.45876,270.364215 C1114.61021,274.603741 1113.44725,280.40766 1108.72581,286.203963 C1101.20848,295.43475 1084.84444,309.995133 1069.1625,309.996221 C1065.94017,309.997309 1062.75047,309.382648 1059.66848,307.98144 C1053.78408,305.305219 1046.4517,298.658182 1036.67048,269.634238 C1035.4553,266.024603 1033.60045,261.940646 1031.63572,257.614089 C1025.58705,244.29173 1018.73117,229.189575 1023.64952,213.964488 C1023.93346,213.081118 1024.21631,212.219505 1024.49372,211.375299 C1027.73128,201.508094 1029.20864,197.005297 1025.81551,188.874372 C1025.33223,187.715868 1023.86668,186.043519 1022.35028,184.369772 L1021.87082,183.841771 C1018.49836,180.129874 1014.30019,175.509585 1012.67597,168.824472 C1011.66206,164.645868 1011.6849,160.98619 1011.70557,158.044523 C1011.73494,153.422058 1011.60113,153.164227 1010.14554,151.801095 C1007.15384,149.000854 1004.19913,149.231488 994.872644,151.538912 C991.490393,152.376591 987.995001,153.241468 984.246131,153.680977 C961.235074,156.387659 939.675264,147.138378 926.597734,128.943339 C913.073081,110.124935 911.011529,85.0141489 921.218116,63.4096472 C925.860144,53.5881335 932.394014,46.235053 938.713569,39.1256608 C939.921127,37.7679682 941.139564,36.3972208 942.356913,34.9938366 C943.757028,33.3815766 945.78268,30.5062708 947.928,27.4612534 C952.662428,20.7422751 956.651069,15.2886962 960.717207,11.464341 L961.12411,11.0873497 L931.742367,-30.0698842 C929.631465,-33.0279029 929.140925,-36.8349791 930.415574,-40.2223934 L930.540249,-40.5386952 L950.657517,-89.3068407 C951.796771,-92.0700156 954.022453,-94.2383841 956.802946,-95.308615 L957.114146,-95.4229849 L1029.1488,-120.676286 L1048.57417,-145.04404 C1005.88645,-144.620849 962.745066,-133.560223 923.213307,-110.736191 C912.438841,-104.516697 902.300791,-97.6150928 892.79263,-90.1401681 C901.571905,-84.6691454 908.590973,-76.5512748 912.60964,-66.8004743 C919.353886,-50.4341423 916.009356,-31.522682 904.105585,-18.4600907 L903.742246,-18.0660536 L891.804825,-5.27458722 L862.189187,46.4276103 C861.476165,47.6721619 860.524556,48.7622249 859.390501,49.6366285 L859.076732,49.8697093 L839.971202,63.5314915 L853.309826,83.0961905 C855.399663,86.1618778 855.783688,90.0793868 854.328091,93.4910247 C852.872494,96.9015747 849.779621,99.3384589 846.121046,99.9509437 C846.030751,99.9661742 836.901176,101.494666 827.723733,102.851271 C818.046948,104.280765 812.186483,105.069488 808.22765,105.070576 C803.919604,105.070576 801.867843,104.134987 799.602855,102.072338 C798.815223,101.354328 798.142907,100.525352 797.600049,99.6213116 C797.161629,99.1665716 796.449061,98.4735826 795.354644,97.4542253 C794.830416,106.70269 794.805301,115.997051 795.289159,125.29697 L795.39272,127.157015 L823.129572,118.147071 C826.412193,117.081636 829.997409,117.637176 832.797694,119.630298 L833.075065,119.834396 L880.450514,155.854591 L905.004199,160.652207 C914.524327,162.513594 922.797733,168.380611 927.705206,176.747609 C932.61268,185.115696 933.692955,195.199392 930.669708,204.416036 C929.90807,206.739092 929.864078,209.190056 930.539582,211.528426 L930.658829,211.91707 L934.105265,222.522956 C939.811272,240.093392 930.31481,259.017959 912.904651,264.989285 L912.374656,265.166254 L907.678233,266.691483 L897.931824,317.56688 C966.580968,369.096103 1058.46636,383.918668 1143.34357,351.295969 C1148.94946,349.136498 1155.244,351.937827 1157.4002,357.545924 C1159.5564,363.154021 1156.75834,369.447493 1151.15027,371.602612 C1119.26311,383.857746 1085.52872,390 1051.73341,390 C1020.65129,390 989.521311,384.807478 959.701149,374.402853 C896.792802,352.451313 843.77773,308.542793 810.421925,250.767967 C773.236745,186.360247 763.358701,111.324883 782.606745,39.4879298 C801.854788,-32.3490236 847.926944,-92.3921102 912.334404,-129.57744 C976.742951,-166.76277 1051.77692,-176.641943 1123.6125,-157.392733 Z M1194.73551,337.800635 C1197.69874,342.910893 1196.03874,349.432847 1191.0423,352.515153 L1190.78538,352.668892 L1190.36654,352.910405 C1188.64876,353.906916 1186.76888,354.382326 1184.91729,354.382326 C1181.16625,354.382326 1177.51638,352.439346 1175.49834,348.961347 C1172.53511,343.851088 1174.19511,337.329134 1179.19154,334.246829 L1179.44847,334.093089 L1179.86731,333.851577 C1185.06742,330.838108 1191.72205,332.607025 1194.73551,337.800635 Z M824.437216,140.597955 L797.659883,149.297849 C802.239902,180.363771 812.63143,211.087007 829.263098,239.891196 C842.652016,263.082295 859.091495,283.455786 877.796181,300.762253 L878.818678,301.703199 L887.519625,256.284682 C888.244689,252.497397 890.919317,249.383656 894.537453,248.089804 L894.841127,247.986221 L905.651493,244.473408 C911.890963,242.445707 915.364022,235.790075 913.503625,229.535741 L913.412503,229.242882 L909.966067,218.638084 C907.732628,211.765853 907.743507,204.50198 909.99544,197.6341 C911.089857,194.293176 910.715623,190.784715 908.936922,187.752752 C907.219556,184.82429 904.476877,182.820742 901.183791,182.078951 L900.828876,182.004317 L873.792625,176.7215 C872.284307,176.427266 870.857561,175.816938 869.603943,174.931587 L869.294198,174.704543 L824.437216,140.597955 Z M1204.60158,179.798066 C1208.92771,180.315034 1212.51851,183.361478 1213.74479,187.523815 L1213.82472,187.809323 L1219.05856,207.537206 C1219.53781,209.340501 1219.54322,211.234772 1219.07923,213.038698 L1218.97261,213.423805 L1206.17685,256.54904 C1199.36013,279.521025 1191.01818,291.063589 1179.9217,292.877109 C1179.02202,293.023975 1178.04944,293.11427 1177.02139,293.111092 C1171.75491,293.111092 1164.97735,290.751363 1158.5316,281.573883 C1149.5881,268.842479 1155.81295,253.889019 1159.29824,245.707073 L1159.403,245.461217 L1159.51179,245.207737 C1160.38102,243.166847 1160.27005,242.041964 1159.79029,238.796774 C1159.23547,235.054416 1158.47612,229.928256 1160.51048,223.448755 C1163.7872,213.002789 1172.36522,208.86335 1178.6282,205.841178 C1181.24784,204.577045 1183.95886,203.268307 1185.01412,202.054217 C1186.8929,199.89257 1188.6988,195.976149 1190.44487,192.189187 C1191.48271,189.938333 1192.55646,187.610238 1193.74879,185.412691 C1195.87561,181.495182 1200.17169,179.280228 1204.60158,179.798066 Z M1010.05742,22.6549345 C1007.27677,22.8877439 1004.16323,22.9987092 1000.86801,23.1151139 C992.645732,23.4066697 981.383891,23.8059271 976.531901,26.5365429 C974.149421,28.0182555 968.662102,35.8075819 965.715007,39.9905372 C963.246584,43.4968219 960.911971,46.8083735 958.790585,49.2539609 C957.515577,50.7226188 956.24057,52.156464 954.977529,53.5783425 C949.194304,60.083953 944.1998,65.7051051 940.893701,72.7013562 C934.063925,87.1594773 935.357427,103.844519 944.268337,116.243255 C952.786518,128.096956 966.430839,133.862799 981.713522,132.072124 C984.102529,131.791447 986.798322,131.12348 989.651858,130.418524 C998.942442,128.12089 1012.98058,124.649418 1025.01917,135.917832 C1033.55802,143.913858 1033.50145,152.502787 1033.46447,158.187037 C1033.45032,160.294289 1033.43836,162.114337 1033.82129,163.690697 C1034.13569,164.983116 1036.17549,167.22853 1037.97595,169.209587 C1040.75768,172.273098 1043.91365,175.74457 1045.89579,180.495407 C1052.40572,196.095817 1048.89184,206.810492 1045.16908,218.157235 C1044.90146,218.969892 1044.62948,219.801044 1044.35425,220.651777 C1042.02399,227.863432 1046.81397,238.416011 1051.44729,248.620463 C1053.5491,253.249455 1055.7227,258.036192 1057.28926,262.68803 C1063.64254,281.54451 1067.84724,286.993774 1069.00802,288.238326 C1070.0252,288.299248 1073.01037,287.855387 1078.12345,284.609109 C1083.62491,281.113703 1088.98386,275.991895 1091.85698,272.46494 C1093.11893,270.915778 1093.48446,269.30243 1094.12958,266.087701 C1094.7834,262.820753 1095.59932,258.754203 1098.06666,254.530995 C1100.12603,251.006216 1102.35947,248.491004 1104.15232,246.471871 C1106.39446,243.947955 1107.62921,242.557626 1108.58221,239.556124 C1111.86328,229.221124 1115.82647,225.002268 1120.84382,219.660705 C1121.54116,218.918761 1122.28527,218.126774 1123.08378,217.257546 C1128.94207,210.884658 1128.77236,209.613997 1125.12902,197.856031 C1117.41044,172.955208 1134.17047,157.346094 1147.63747,144.804844 C1152.92353,139.88212 1157.92674,135.223755 1161.44062,130.321701 C1160.6073,130.184626 1159.78703,130.058431 1159.0712,129.948553 C1153.1509,129.040161 1146.44188,128.012101 1140.9687,124.434015 C1128.89856,116.544602 1123.20889,103.853222 1118.18937,92.6566095 C1117.44525,90.9986579 1116.7131,89.3613763 1115.96898,87.7719621 C1114.23597,84.0676805 1112.69117,80.072931 1111.05607,75.8399325 C1107.81959,67.4642309 1104.15232,57.9701735 1099.44719,52.9821761 C1096.79818,50.1754077 1084.80854,46.9291298 1078.36714,45.1852345 C1076.49379,44.6771877 1074.66614,44.1821956 1072.9266,43.6850277 C1072.15637,45.1417188 1071.1207,46.3492819 1070.01541,47.2500588 C1069.85875,47.3947488 1069.7108,47.5535814 1069.55414,47.712414 C1067.59159,49.7108767 1063.01048,54.4029667 1054.77733,53.8688104 C1045.89801,53.3033143 1036.45674,47.1131228 1028.07616,41.528064 L1026.68797,40.6027989 C1024.01739,38.8244989 1021.53292,37.1920367 1019.69613,36.209015 C1016.68485,34.5978429 1014.60371,31.6659666 1014.08044,28.2902292 C1013.78235,26.3711829 1014.00537,24.436906 1014.69183,22.6745166 C1013.15464,22.5548481 1011.52498,22.5320024 1010.05742,22.6549345 Z M1185.3209,250.360007 L1193.55297,222.614339 C1191.66113,223.708762 1189.78669,224.612802 1188.08414,225.43525 C1184.24389,227.289023 1181.69496,228.605376 1181.26851,229.96198 C1180.74959,231.612317 1180.89754,232.813353 1181.31203,235.608154 C1181.94371,239.881858 1182.80694,245.701344 1179.7297,253.248405 L1179.52789,253.732481 L1179.41801,253.987048 C1177.3619,258.814037 1174.25488,266.107283 1176.33384,269.068533 C1176.571,269.406868 1176.79293,269.702775 1176.99745,269.96387 C1178.74364,267.578514 1181.74891,262.245094 1185.15575,250.913027 L1185.3209,250.360007 L1193.55297,222.614339 Z M874.866373,-74.6496348 C833.426454,-35.3276794 807.07775,16.1863123 798.242992,70.8671657 C803.599764,75.5549041 807.193066,78.7631057 809.778982,81.1651773 C810.469792,81.8070352 811.137757,82.4282231 811.776348,83.0407078 C814.975713,82.6918563 819.727618,82.045408 825.047028,81.2577648 L825.663268,81.1662652 L816.00389,66.9975241 C812.730203,62.1949565 813.814821,55.6891969 818.419284,52.2012418 L818.66487,52.0204772 L844.492474,33.5523761 L873.552201,-17.1826831 C873.899419,-17.7882778 874.304054,-18.3591203 874.75981,-18.8870263 L875.039347,-19.198552 L887.836201,-32.9092894 C894.243875,-39.7771689 896.073707,-49.8271405 892.494548,-58.5107164 C889.313556,-66.2315053 882.801445,-72.1507406 874.866373,-74.6496348 Z M1052.16312,-31.2861505 C1054.15179,-36.95517 1060.36364,-39.9349137 1066.02829,-37.9505937 L1066.02829,-37.9505937 L1066.76261,-37.6938505 C1072.43161,-35.7062668 1075.41569,-29.4987394 1073.42703,-23.828632 C1071.85612,-19.3519452 1067.65251,-16.5484404 1063.1617,-16.5484404 C1061.9661,-16.5484404 1060.75202,-16.7464373 1059.56078,-17.1641888 L1059.56078,-17.1641888 L1058.82754,-17.420932 C1053.15854,-19.4096036 1050.17446,-25.6160431 1052.16312,-31.2861505 Z"></path>
            </g>
        </g>
    </g>
</svg>