<?xml version="1.0" encoding="UTF-8"?>
<svg width="38px" height="38px" viewBox="0 0 38 38" version="1.1" xmlns="http://www.w3.org/2000/svg" xmlns:xlink="http://www.w3.org/1999/xlink">
    <!-- Generator: sketchtool 57.1 (101010) - https://sketch.com -->
    <title>7BBDF15E-2B30-4FF5-B714-721125E787A0</title>
    <desc>Created with sketchtool.</desc>
    <g id="Page-1" stroke="none" stroke-width="1" fill="none" fill-rule="evenodd">
        <g id="Services---Talent-Sourcing" transform="translate(-220.000000, -1233.000000)" fill="#E0EDF7" fill-rule="nonzero">
            <g id="Group-7" transform="translate(220.000000, 1233.000000)">
                <g id="man">
                    <path d="M16.4443733,0.000253333333 C20.83616,0.000253333333 24.9653667,1.71063333 28.07098,4.8165 C31.17672,7.92236667 32.8872267,12.0518267 32.8872267,16.44412 C32.8872267,20.6030933 31.3529133,24.5254533 28.5530733,27.5672267 L28.5530733,27.5672267 L37.76288,36.7772867 C38.0352133,37.0493667 38.0352133,37.4908 37.76288,37.76288 C37.6267133,37.89892 37.4484933,37.96694 37.27002,37.96694 C37.0915467,37.96694 36.9132,37.89892 36.77716,37.76288 L36.77716,37.76288 L27.5671,28.5530733 C24.5253267,31.3527867 20.60284,32.8871 16.44412,32.8871 C12.0515733,32.8871 7.92236667,31.1769733 4.8165,28.0711067 C1.71050667,24.9654933 4.51194637e-13,20.8362867 4.51194637e-13,16.4439933 C4.51194637e-13,12.0514467 1.71050667,7.92224 4.8165,4.8165 C7.92262,1.71076 12.0518267,0.000253333333 16.4443733,0.000253333333 Z M18.53412,19.1047533 L14.3528533,19.1047533 C12.5382267,19.1047533 11.0620533,20.58118 11.0620533,22.39606 L11.0620533,22.39606 L11.0620533,30.49728 C12.73418,31.1397333 14.5483,31.4930067 16.44412,31.4930067 C18.3393067,31.4930067 20.1533,31.1399867 21.8251733,30.4975333 L21.8251733,30.4975333 L21.8251733,22.39606 C21.8251733,20.58118 20.3487467,19.1047533 18.53412,19.1047533 L18.53412,19.1047533 Z M16.44412,1.39422 C8.14555333,1.39422 1.39409333,8.14555333 1.39409333,16.4439933 C1.39409333,22.3062533 4.76380667,27.39572 9.66808667,29.87902 L9.66808667,29.87902 L9.66808667,22.39606 C9.66808667,19.8125667 11.7696133,17.71066 14.35298,17.71066 L14.35298,17.71066 L18.5342467,17.71066 C21.11774,17.71066 23.2193933,19.8125667 23.2193933,22.39606 L23.2193933,22.39606 L23.2193933,29.87902 C28.1231667,27.3959733 31.4930067,22.3062533 31.4930067,16.4439933 C31.4930067,8.14568 24.7420533,1.39422 16.44412,1.39422 Z M16.4268933,7.40708667 C19.0830933,7.40708667 21.2444067,9.56878 21.2444067,12.2258667 C21.2444067,14.8820667 19.08322,17.0431267 16.4268933,17.0431267 C13.7703133,17.0431267 11.6092533,14.8821933 11.60938,12.2258667 C11.60938,9.56878 13.7703133,7.40708667 16.4268933,7.40708667 Z M16.4268933,8.80118 C14.53918,8.80118 13.0033467,10.33752 13.0034733,12.2258667 C13.0034733,14.1134533 14.5393067,15.6490333 16.4268933,15.6490333 C18.31448,15.6490333 19.8503133,14.1134533 19.8503133,12.2258667 C19.8503133,10.33752 18.31448,8.80118 16.4268933,8.80118 Z" id="Combined-Shape"></path>
                </g>
            </g>
        </g>
    </g>
</svg>