<?xml version="1.0" encoding="UTF-8"?>
<svg width="193px" height="206px" viewBox="0 0 193 206" version="1.1" xmlns="http://www.w3.org/2000/svg" xmlns:xlink="http://www.w3.org/1999/xlink">
    <!-- Generator: sketchtool 57.1 (101010) - https://sketch.com -->
    <title>4B877210-68E7-4636-B2EA-99301B83DCC6</title>
    <desc>Created with sketchtool.</desc>
    <g id="Page-1" stroke="none" stroke-width="1" fill="none" fill-rule="evenodd">
        <g id="Landing-page-3-b" transform="translate(-262.000000, -2196.000000)" fill="#90328D" fill-rule="nonzero">
            <g id="Group-10" transform="translate(221.000000, 2196.000000)">
                <g id="search">
                    <g transform="translate(158.000000, 101.000000) scale(-1, 1) translate(-158.000000, -101.000000) translate(41.000000, -16.000000)" id="Combined-Shape">
                        <path d="M144.874554,0 C194.018782,0 234,39.9788442 234,89.1191356 C234,138.259427 194.018325,178.238271 144.874554,178.238271 C127.737788,178.238271 111.71806,173.372366 98.1166033,164.956778 L98.1166033,164.956778 L35.0985146,227.970405 C27.0584853,236.010322 14.053026,236.009408 6.01391084,227.970405 C-2.00463695,219.952425 -2.00463695,206.90584 6.01391084,198.88786 L6.01391084,198.88786 L69.0319996,135.874233 C60.6153582,122.273282 55.7491088,106.254689 55.7491088,89.1191356 C55.7491088,39.9788442 95.7307837,0 144.874554,0 Z M52.9108062,171.38341 L15.7093882,208.582194 C13.0369959,211.254397 13.0369959,215.602954 15.7093882,218.275157 C18.3909214,220.956043 22.721961,220.955586 25.4030373,218.275157 L25.4030373,218.275157 L62.6044553,181.076373 L52.9108062,171.38341 Z M77.2242277,147.072167 L62.6058265,161.689076 L72.2994756,171.382039 L86.9178768,156.76513 C83.4451838,153.785808 80.2037599,150.544614 77.2242277,147.072167 L77.2242277,147.072167 Z M144.874554,13.7106362 C103.291364,13.7106362 69.4607159,47.538889 69.4607159,89.1191356 C69.4607159,130.699382 103.291364,164.527635 144.874554,164.527635 C186.458202,164.527635 220.288393,130.699382 220.288393,89.1191356 C220.288393,47.538889 186.457745,13.7106362 144.874554,13.7106362 Z M145.056122,82.377551 C163.630172,82.377551 178.776006,97.4688733 179.077065,116.134814 L179.081633,116.701531 L179.081633,130.431122 C179.081633,134.143337 176.160392,137.16754 172.510473,137.291938 L172.276531,137.295918 L117.835714,137.295918 C114.15578,137.295918 111.157874,134.349053 111.034558,130.667117 L111.030612,130.431122 L111.030612,116.701531 C111.030612,97.7752883 126.294456,82.377551 145.056122,82.377551 Z M145.056122,96.1071429 C133.91399,96.1071429 124.827939,105.158203 124.64367,116.354575 L124.640816,116.701531 L124.640816,123.566327 L165.471429,123.566327 L165.471429,116.701531 C165.471429,105.345785 156.313122,96.1071429 145.056122,96.1071429 Z M145.056122,40.5918367 C156.576444,40.5918367 165.94898,49.9643724 165.94898,61.4846939 C165.94898,73.0050153 156.576444,82.377551 145.056122,82.377551 C133.535801,82.377551 124.163265,73.0050153 124.163265,61.4846939 C124.163265,49.9643724 133.535801,40.5918367 145.056122,40.5918367 Z M145.056122,54.5204082 C141.216015,54.5204082 138.091837,57.6445867 138.091837,61.4846939 C138.091837,65.324801 141.216015,68.4489796 145.056122,68.4489796 C148.89623,68.4489796 152.020408,65.324801 152.020408,61.4846939 C152.020408,57.6445867 148.89623,54.5204082 145.056122,54.5204082 Z"></path>
                    </g>
                </g>
            </g>
        </g>
    </g>
</svg>