<?xml version="1.0" encoding="UTF-8"?>
<svg width="25px" height="20px" viewBox="0 0 25 20" version="1.1" xmlns="http://www.w3.org/2000/svg" xmlns:xlink="http://www.w3.org/1999/xlink">
    <!-- Generator: sketchtool 57.1 (101010) - https://sketch.com -->
    <title>EC7B28E8-BDF4-4BED-AA52-65760038C64D</title>
    <desc>Created with sketchtool.</desc>
    <g id="Page-1" stroke="none" stroke-width="1" fill="none" fill-rule="evenodd">
        <g id="Services---GEO" transform="translate(-262.000000, -2088.000000)" fill="#4C5258" fill-rule="nonzero">
            <g id="Group-18" transform="translate(0.000000, 1863.000000)">
                <g id="Group-15" transform="translate(219.000000, 225.000000)">
                    <g id="Group-21" transform="translate(1.000000, 0.000000)">
                        <path d="M49.726262,19.9729567 C58.9974459,19.9729567 64.067458,12.2919171 64.067458,5.63161058 C64.067458,5.41346154 64.0629507,5.19621392 64.0531851,4.98016827 C65.0372596,4.26862981 65.8925781,3.38070915 66.567458,2.37004208 C65.664363,2.77163462 64.6923077,3.04161658 63.6729267,3.163762 C64.7134916,2.53951323 65.51247,1.55243388 65.8892728,0.375751192 C64.9154146,0.953125 63.836839,1.37259615 62.6887019,1.59915865 C61.7689303,0.619441115 60.4592849,0.00676080769 59.0093149,0.00676080769 C56.2259615,0.00676080769 53.9685998,2.26397235 53.9685998,5.04642427 C53.9685998,5.44215746 54.0129207,5.82677285 54.0993089,6.19576323 C49.9101563,5.98497596 46.1953125,3.97941708 43.7095853,0.929537269 C43.276893,1.67427885 43.0271935,2.53966346 43.0271935,3.46304085 C43.0271935,5.21153846 43.9170673,6.75555888 45.2701322,7.65850362 C44.4432091,7.633113 43.6664663,7.40609977 42.9873798,7.02824519 C42.9866286,7.04942908 42.9866286,7.070012 42.9866286,7.09254808 C42.9866286,9.53365385 44.7240084,11.5718149 47.030649,12.0336538 C46.6069711,12.1488882 46.161208,12.2109375 45.7014723,12.2109375 C45.3772536,12.2109375 45.0611478,12.1790865 44.7540565,12.1200421 C45.3957332,14.1227464 47.2566106,15.5800781 49.4627404,15.6209435 C47.73753,16.973107 45.5643029,17.7785457 43.2023738,17.7785457 C42.7961238,17.7785457 42.3945313,17.7552584 42,17.7086839 C44.2307692,19.1385216 46.8796575,19.9729567 49.7264123,19.9729567" id="Path"></path>
                    </g>
                </g>
            </g>
        </g>
    </g>
</svg>