<?xml version="1.0" encoding="UTF-8"?>
<svg width="97px" height="97px" viewBox="0 0 97 97" version="1.1" xmlns="http://www.w3.org/2000/svg" xmlns:xlink="http://www.w3.org/1999/xlink">
    <!-- Generator: sketchtool 57.1 (101010) - https://sketch.com -->
    <title>F96F417D-55C6-447C-871A-933D073CD623</title>
    <desc>Created with sketchtool.</desc>
    <g id="Page-1" stroke="none" stroke-width="1" fill="none" fill-rule="evenodd">
        <g id="Services---Talent-Sourcing" transform="translate(-290.000000, -441.000000)" fill="#E0EDF7" fill-rule="nonzero">
            <g id="Combined-Shape" transform="translate(220.000000, 384.000000)">
                <g id="user" transform="translate(70.000000, 57.000000)">
                    <path d="M76.9101021,45.7213542 C84.7479729,45.7213542 91.1246293,52.0876656 91.1246293,59.9128208 C91.1246293,64.2261548 89.1846823,68.0935101 86.1329995,70.6984263 C92.5011274,74.040333 97,80.7370129 97,88.4851579 L97,88.4851579 L97,94.1617824 C97,95.7292354 95.7271704,97 94.1571704,97 L94.1571704,97 L2.8047357,97 C1.23473567,97 0,95.7292354 0,94.1617824 L0,94.1617824 L0,88.4851579 C0,80.6586781 4.53071233,74.0036254 10.8290961,70.6984263 C7.77741328,68.0933209 5.83746635,64.2261548 5.83746635,59.9128208 C5.83746635,52.0876656 12.2141227,45.7213542 20.0519935,45.7213542 C27.8898643,45.7213542 34.2665207,52.0876656 34.2665207,59.9128208 L34.266,59.909 L34.2699099,59.6006043 C34.434569,52.0228341 40.5782402,45.8891299 48.1683239,45.7247379 L48.4810478,45.7213542 C56.3177815,45.7213542 62.6936797,52.0857734 62.695575,59.9092257 C62.6976597,52.0857734 69.0733685,45.7213542 76.9101021,45.7213542 Z M20.0516145,74.1044767 C12.2438777,74.1044767 5.64756533,80.6900877 5.64756533,88.4851579 L5.64756533,88.4851579 L5.64756533,91.3233755 L28.6183868,91.3233755 L28.6183868,88.4851579 C28.6183868,85.1021916 29.4168428,81.9129811 30.8903762,79.1144985 C28.2027651,75.9513995 24.261087,74.1044767 20.0516145,74.1044767 Z M48.4806688,74.1046659 C40.642798,74.1046659 34.2661416,80.5557454 34.2661416,88.4853471 L34.2661416,88.4853471 L34.2661416,91.3235647 L62.7332898,91.3235647 L62.7332898,88.4853471 C62.7332898,80.5559346 56.3185395,74.1046659 48.4806688,74.1046659 Z M76.9101021,74.1044767 C72.70044,74.1044767 68.758762,75.9513995 66.0713404,79.1144985 C67.5446842,81.9131703 68.3812342,85.1023808 68.3812342,88.4853471 L68.3812342,88.4853471 L68.3812342,91.3235647 L91.3520556,91.3235647 L91.3520556,88.4851579 C91.3520556,80.6900877 84.7178389,74.1044767 76.9101021,74.1044767 Z M34.266,59.919 L34.2612083,60.3033489 C34.1481239,64.4554155 32.2374639,68.1656295 29.2828508,70.6914254 C31.1314481,71.6577439 32.8282384,72.9135606 34.3030984,74.4255737 C35.7514253,72.9419427 37.4266101,71.6844231 39.2710379,70.70959 C36.2117742,68.1044846 34.2665207,64.2323989 34.2665207,59.9128208 L34.266,59.919 Z M62.695575,59.9194433 C62.6934902,64.2363724 60.7488052,68.1059983 57.6910577,70.70959 C59.5354855,71.6844231 61.2104808,72.942132 62.6588077,74.4255737 C64.1334782,72.9133713 65.8302684,71.6577439 67.6790553,70.6914254 C64.6336267,68.0878337 62.6974702,64.226344 62.695575,59.9194433 Z M76.9099126,51.3979787 C72.2073038,51.3979787 68.3812342,55.2178412 68.3812342,59.9128208 C68.3812342,64.6078004 72.2071143,68.427663 76.9099126,68.427663 C81.6125213,68.427663 85.438591,64.6079897 85.438591,59.9128208 C85.438591,55.2178412 81.6127109,51.3979787 76.9099126,51.3979787 Z M48.4808583,51.3979787 C43.77806,51.3979787 39.9519904,55.2178412 39.9521799,59.9128208 C39.9521799,64.6078004 43.77806,68.427663 48.4808583,68.427663 C53.183467,68.427663 57.0095367,64.6079897 57.0095367,59.9128208 C57.0095367,55.2178412 53.1836566,51.3979787 48.4808583,51.3979787 Z M20.0516145,51.3979787 C15.3488162,51.3979787 11.5229361,55.2178412 11.5229361,59.9128208 C11.5229361,64.6078004 15.3490057,68.427663 20.0516145,68.427663 C24.7542232,68.427663 28.5802928,64.6079897 28.5802928,59.9128208 C28.5802928,55.2178412 24.7544127,51.3979787 20.0516145,51.3979787 Z M45.6978892,1.59528235 C46.728482,-0.530436615 49.7650937,-0.533084543 50.7970089,1.59528235 L50.7970089,1.59528235 L55.6662053,11.6390633 L66.5339993,13.2200656 C68.8549584,13.5576765 69.7825863,16.4214109 68.1047322,18.0593436 L68.1047322,18.0593436 L60.2321751,25.74174 L62.0904538,36.5895455 C62.4877657,38.9085633 60.050617,40.6711378 57.9784738,39.5803805 L57.9784738,39.5803805 L48.2474491,34.4587198 L38.5164244,39.5803805 C36.4403137,40.6732183 34.008266,38.9017543 34.4044444,36.5895455 L34.4044444,36.5895455 L36.2627231,25.74174 L28.3905438,18.0593436 C26.7108005,16.4202761 27.641829,13.5574873 29.9610878,13.2200656 L29.9610878,13.2200656 L40.8286928,11.6390633 Z M48.2472602,9.33177214 L45.2720495,15.4691024 C44.8618906,16.3151155 44.0595208,16.9027664 43.1300036,17.0379999 L43.1300036,17.0379999 L36.4588285,18.0082765 L41.2862722,22.7193191 C41.9541265,23.3710877 42.2588646,24.3101565 42.1013001,25.2305008 L42.1013001,25.2305008 L40.9616969,31.8824748 L46.9287438,28.7420319 C47.7541626,28.3075825 48.7407355,28.3075825 49.5661544,28.7420319 L49.5661544,28.7420319 L55.5332012,31.8824748 L54.3935981,25.2305008 C54.2360336,24.3101565 54.5407716,23.3710877 55.2086259,22.7193191 L55.2086259,22.7193191 L60.0360696,18.0084656 L53.3645167,17.0379999 C52.4349996,16.9027664 51.6328187,16.3151155 51.2226598,15.4691024 L51.2226598,15.4691024 L48.2472602,9.33177214 Z" id="Combined-Shape"></path>
                </g>
            </g>
        </g>
    </g>
</svg>