<?xml version="1.0" encoding="UTF-8"?>
<svg width="23px" height="34px" viewBox="0 0 23 34" version="1.1" xmlns="http://www.w3.org/2000/svg" xmlns:xlink="http://www.w3.org/1999/xlink">
    <!-- Generator: sketchtool 57.1 (101010) - https://sketch.com -->
    <title>5A2E6ECD-E91B-411C-A1C6-0F33E714D2C2</title>
    <desc>Created with sketchtool.</desc>
    <g id="Page-1" stroke="none" stroke-width="1" fill="none" fill-rule="evenodd">
        <g id="About-us" transform="translate(-849.000000, -578.000000)" fill="#FFFFFF" fill-rule="nonzero">
            <g id="Group-6" transform="translate(631.000000, 564.000000)">
                <path d="M245.79856,30.5139347 L235.486068,20.2014322 C235.217492,19.9328559 234.782433,19.9328559 234.513922,20.2014322 C234.245346,20.4700084 234.245346,20.9050671 234.513922,21.1735789 L243.652853,30.3125186 L213.687521,30.3125186 C213.307506,30.3125186 213,30.6200246 213,31.0000403 C213,31.380056 213.307506,31.6875619 213.687521,31.6875619 L243.652853,31.6875619 L234.513922,40.8264372 C234.245346,41.0950135 234.245346,41.5300722 234.513922,41.7985839 C234.648178,41.9328398 234.824134,42 235.000027,42 C235.175919,42 235.351812,41.9328398 235.486132,41.7985839 L245.798624,31.4860814 C246.067136,31.2175696 246.067136,30.7825109 245.79856,30.5139347 Z" id="Path" transform="translate(229.500000, 31.000000) rotate(-270.000000) translate(-229.500000, -31.000000) "></path>
            </g>
        </g>
    </g>
</svg>